<?xml version="1.0" encoding="UTF-8" ?>
<!DOCTYPE svg PUBLIC "-//W3C//DTD SVG 1.1//EN" "http://www.w3.org/Graphics/SVG/1.1/DTD/svg11.dtd">
<svg width="512pt" height="512pt" viewBox="0 0 512 512" version="1.1" xmlns="http://www.w3.org/2000/svg">
<g id="#000000ff">
<path fill="#000000" opacity="1.00" d=" M 159.70 32.84 C 176.15 21.39 195.97 15.24 215.93 14.33 C 239.78 13.19 264.45 18.96 284.05 32.97 C 305.76 48.10 320.04 72.54 324.80 98.36 C 327.99 114.54 327.78 131.22 325.70 147.52 C 322.02 177.52 310.61 206.48 293.12 231.10 C 287.80 238.77 281.10 245.53 277.09 254.06 C 272.93 262.00 271.79 271.27 273.09 280.08 C 274.14 287.72 279.38 294.54 286.36 297.74 C 301.20 304.07 315.86 310.84 330.65 317.30 C 314.07 323.16 298.58 332.57 286.79 345.73 C 272.32 361.43 262.97 381.81 260.68 403.05 C 256.49 436.54 270.56 471.77 296.81 493.02 C 253.11 498.57 208.81 499.26 164.93 495.64 C 134.41 492.72 103.85 488.01 74.71 478.22 C 65.15 474.65 55.30 471.23 47.15 464.91 C 32.52 453.98 23.09 436.27 22.58 417.98 C 22.35 414.30 22.92 410.62 22.74 406.94 C 21.69 392.75 27.56 378.47 37.47 368.40 C 52.44 351.90 70.46 338.31 90.16 327.96 C 106.99 318.75 124.27 310.33 141.98 302.92 C 151.66 298.91 161.64 293.60 167.16 284.31 C 170.90 278.31 171.69 270.77 169.79 264.02 C 167.87 257.13 164.16 250.88 159.73 245.32 C 145.71 227.71 133.89 208.17 126.24 186.95 C 120.89 172.54 117.72 157.37 116.37 142.07 C 116.08 133.08 116.09 124.08 116.38 115.09 C 117.25 105.68 118.57 96.29 120.97 87.13 C 126.93 65.21 140.93 45.63 159.70 32.84 Z" />
<path fill="#000000" opacity="1.00" d=" M 349.42 336.59 C 365.56 333.98 382.51 336.51 397.15 343.81 C 415.30 352.66 429.67 368.81 436.55 387.78 C 440.95 400.64 443.14 414.62 440.23 428.06 C 437.20 446.35 427.52 463.42 413.38 475.39 C 399.23 487.57 380.65 494.44 361.99 494.36 C 341.90 494.49 321.85 486.56 307.40 472.59 C 296.80 462.68 289.13 449.75 285.31 435.77 C 280.72 418.25 282.01 399.10 289.53 382.57 C 300.04 358.45 323.39 340.50 349.42 336.59 M 352.50 367.44 C 352.48 380.18 352.47 392.91 352.51 405.64 C 339.76 405.71 327.01 405.62 314.27 405.69 C 314.33 411.88 314.34 418.08 314.26 424.29 C 327.01 424.35 339.76 424.26 352.51 424.33 C 352.46 437.06 352.49 449.79 352.49 462.53 C 358.78 462.51 365.08 462.53 371.37 462.52 C 371.39 449.79 371.41 437.06 371.36 424.33 C 384.03 424.27 396.71 424.33 409.39 424.29 C 409.35 418.09 409.36 411.88 409.39 405.68 C 396.71 405.63 384.03 405.70 371.36 405.64 C 371.41 392.91 371.39 380.18 371.37 367.46 C 365.08 367.45 358.79 367.46 352.50 367.44 Z" />
</g>
</svg>
