<?xml version="1.0" encoding="UTF-8" ?>
<!DOCTYPE svg PUBLIC "-//W3C//DTD SVG 1.1//EN" "http://www.w3.org/Graphics/SVG/1.1/DTD/svg11.dtd">
<svg width="512pt" height="512pt" viewBox="0 0 512 512" version="1.1" xmlns="http://www.w3.org/2000/svg">
<g id="#303030ff">
<path fill="#303030" opacity="1.00" d=" M 125.69 0.00 L 164.47 0.00 C 169.85 0.20 174.84 4.48 175.03 10.02 C 175.44 17.56 175.05 25.12 175.20 32.67 C 181.28 34.65 187.19 37.11 192.90 40.00 C 197.80 35.17 202.63 30.26 207.54 25.44 C 210.00 22.97 213.35 21.09 216.95 21.51 C 220.42 21.71 223.19 24.03 225.53 26.38 C 233.52 34.43 241.57 42.43 249.59 50.45 C 252.13 52.95 254.31 56.25 253.92 59.98 C 253.90 63.38 251.71 66.18 249.44 68.49 C 244.77 73.17 240.07 77.82 235.43 82.53 C 237.97 87.65 240.17 92.93 242.01 98.34 C 229.44 95.98 216.54 95.64 203.85 97.22 C 195.20 82.26 180.99 70.45 164.35 65.52 C 150.30 61.31 134.86 61.76 121.16 67.05 C 105.32 73.03 91.93 85.20 84.49 100.41 C 76.20 116.88 75.33 136.79 81.87 154.00 C 86.96 167.56 96.60 179.22 108.69 187.16 C 106.00 199.11 104.69 211.35 104.61 223.60 C 102.19 222.60 99.77 221.60 97.34 220.60 C 93.05 224.89 88.74 229.17 84.48 233.49 C 81.91 236.08 79.00 238.90 75.12 239.08 C 71.28 239.56 67.85 237.34 65.28 234.73 C 57.11 226.54 48.93 218.36 40.74 210.19 C 38.31 207.78 36.19 204.68 36.31 201.10 C 36.23 197.46 38.48 194.39 40.96 191.95 C 45.60 187.33 50.23 182.70 54.84 178.06 C 51.95 172.35 49.49 166.43 47.48 160.36 C 40.98 160.32 34.47 160.36 27.96 160.36 C 24.60 160.35 20.92 159.94 18.41 157.46 C 15.69 155.12 14.82 151.43 14.85 147.99 C 14.81 136.67 14.88 125.34 14.82 114.02 C 14.85 110.67 15.01 106.97 17.32 104.30 C 19.54 101.35 23.33 100.20 26.90 100.23 C 33.75 100.16 40.61 100.24 47.47 100.23 C 49.56 94.18 51.94 88.23 54.85 82.52 C 50.32 77.95 45.75 73.41 41.19 68.87 C 38.76 66.47 36.44 63.57 36.33 59.99 C 36.01 56.32 38.08 53.03 40.60 50.55 C 48.76 42.40 56.93 34.27 65.07 26.10 C 67.64 23.45 71.03 21.10 74.92 21.49 C 78.47 21.59 81.32 23.93 83.69 26.33 C 88.23 30.90 92.78 35.45 97.34 40.00 C 103.07 37.13 108.99 34.65 115.08 32.67 C 115.24 24.97 114.79 17.25 115.30 9.57 C 115.72 4.25 120.52 0.28 125.69 0.00 Z" />
<path fill="#303030" opacity="1.00" d=" M 102.46 103.52 C 110.17 90.72 123.99 81.77 138.88 80.23 C 156.87 77.73 175.51 86.17 186.05 100.83 C 167.73 106.45 150.60 116.50 137.75 130.82 C 127.14 141.92 119.57 155.53 113.87 169.70 C 106.32 163.36 100.06 155.24 97.10 145.74 C 92.51 131.79 94.71 115.94 102.46 103.52 Z" />
<path fill="#303030" opacity="1.00" d=" M 250.32 100.34 C 256.46 100.04 262.77 99.81 268.79 101.26 C 272.86 102.35 275.09 106.38 275.38 110.36 C 267.33 106.27 259.01 102.81 250.32 100.34 Z" />
<path fill="#303030" opacity="1.00" d=" M 207.19 122.26 C 226.72 119.52 247.18 123.62 263.99 133.97 C 281.84 144.73 295.04 162.38 301.58 182.06 C 308.65 202.48 309.24 224.60 306.48 245.87 C 302.62 273.54 292.89 300.67 276.53 323.44 C 267.05 336.30 255.09 347.94 240.15 354.15 C 226.87 359.94 211.20 359.89 197.96 354.01 C 189.71 350.56 182.34 345.28 175.79 339.24 C 162.24 326.39 152.26 310.20 144.94 293.12 C 132.82 264.23 127.49 232.04 132.16 200.91 C 135.18 182.15 142.72 163.78 155.59 149.61 C 168.80 134.72 187.49 124.93 207.19 122.26 Z" />
<path fill="#303030" opacity="1.00" d=" M 328.36 181.49 C 330.89 179.66 333.91 178.64 337.05 178.72 C 349.71 178.70 362.37 178.74 375.04 178.70 C 378.16 178.76 381.53 179.01 384.08 181.03 C 387.30 183.20 388.83 187.12 388.90 190.90 C 389.02 198.58 388.90 206.25 388.94 213.93 C 395.51 216.12 401.91 218.75 408.09 221.87 C 413.07 216.90 418.05 211.94 422.99 206.95 C 425.43 204.51 428.33 202.13 431.93 201.91 C 435.77 201.40 439.40 203.33 442.05 205.97 C 450.90 214.77 459.68 223.64 468.55 232.43 C 470.91 234.79 473.37 237.50 473.78 240.97 C 474.53 244.76 472.92 248.59 470.30 251.29 C 464.93 256.88 459.29 262.21 453.92 267.80 C 457.16 273.91 459.71 280.33 461.91 286.87 C 469.96 286.98 478.03 286.67 486.07 287.01 C 492.27 287.14 497.31 292.86 497.08 298.98 C 497.22 311.66 497.08 324.35 497.17 337.03 C 497.19 340.65 496.92 344.63 494.36 347.44 C 492.14 350.27 488.55 351.61 485.04 351.68 C 477.33 351.80 469.62 351.67 461.92 351.72 C 459.72 358.28 457.08 364.67 453.94 370.84 C 458.98 375.89 464.03 380.94 469.11 385.96 C 471.51 388.35 473.72 391.30 473.90 394.83 C 474.40 398.92 472.14 402.64 469.32 405.38 C 460.13 414.50 451.04 423.72 441.82 432.82 C 438.59 436.15 433.68 437.58 429.21 436.16 C 426.12 428.84 423.53 421.26 419.48 414.39 C 413.20 401.86 404.71 390.63 395.61 380.03 C 408.61 371.44 419.05 358.84 424.37 344.13 C 429.68 329.77 430.29 313.67 425.95 298.97 C 420.86 281.45 408.81 266.09 393.05 256.91 C 374.79 246.00 351.60 243.97 331.73 251.58 C 334.89 228.28 334.64 204.27 328.36 181.49 Z" />
<path fill="#303030" opacity="1.00" d=" M 327.46 272.58 C 338.87 265.56 352.78 262.57 366.01 264.96 C 382.38 267.69 397.15 278.37 405.00 292.97 C 411.49 304.73 413.34 318.91 410.18 331.97 C 406.67 347.01 396.30 360.03 382.87 367.52 C 360.58 347.94 333.07 334.45 303.92 328.90 C 314.58 311.44 322.24 292.32 327.46 272.58 Z" />
<path fill="#303030" opacity="1.00" d=" M 68.65 390.61 C 91.35 368.97 121.55 355.40 152.81 352.75 C 162.80 363.30 174.65 372.33 188.12 377.94 C 204.19 384.78 222.53 386.12 239.41 381.65 C 257.42 377.01 273.06 365.94 285.83 352.69 C 328.08 356.35 368.10 380.19 390.88 416.04 C 402.82 433.81 408.24 454.73 415.22 474.70 C 418.40 483.48 417.07 493.80 411.27 501.20 C 406.32 507.78 398.31 511.59 390.15 512.00 L 48.64 512.00 C 39.07 511.73 29.71 506.48 25.06 498.02 C 20.90 490.84 20.54 481.92 23.35 474.19 C 27.11 463.26 30.60 452.23 34.67 441.42 C 41.99 422.22 53.72 404.73 68.65 390.61 Z" />
</g>
</svg>
