<?xml version="1.0" encoding="UTF-8" ?>
<!DOCTYPE svg PUBLIC "-//W3C//DTD SVG 1.1//EN" "http://www.w3.org/Graphics/SVG/1.1/DTD/svg11.dtd">
<svg width="512pt" height="512pt" viewBox="0 0 512 512" version="1.1" xmlns="http://www.w3.org/2000/svg">
<g id="#fe2d02ff">
<path fill="#fe2d02" opacity="1.00" d=" M 125.67 0.00 L 164.50 0.00 C 169.85 0.22 174.82 4.46 175.02 9.96 C 175.43 17.52 175.05 25.10 175.19 32.67 C 181.28 34.65 187.19 37.11 192.90 40.00 C 198.33 34.76 203.46 29.20 209.05 24.12 C 213.06 20.44 219.68 20.70 223.51 24.50 C 232.00 32.68 240.18 41.18 248.60 49.44 C 251.24 52.02 253.98 55.11 253.95 59.05 C 254.17 62.50 252.30 65.60 249.94 67.96 C 245.13 72.84 240.24 77.64 235.43 82.52 C 237.96 87.65 240.17 92.93 242.01 98.34 C 229.44 95.97 216.54 95.65 203.85 97.22 C 194.80 81.53 179.58 69.32 161.94 64.85 C 148.58 61.38 134.14 62.06 121.23 67.02 C 105.36 72.99 91.94 85.18 84.49 100.40 C 76.58 116.14 75.40 135.04 81.06 151.70 C 85.89 166.22 95.92 178.79 108.69 187.15 C 106.00 199.12 104.69 211.36 104.61 223.62 C 102.16 222.71 99.79 221.19 97.21 220.88 C 93.28 224.40 89.73 228.33 85.95 232.00 C 82.89 235.03 79.76 238.83 75.12 239.09 C 71.29 239.55 67.87 237.37 65.31 234.76 C 57.30 226.75 49.31 218.71 41.27 210.73 C 38.87 208.36 36.54 205.52 36.34 202.00 C 35.96 198.34 37.93 194.97 40.45 192.48 C 45.23 187.67 50.06 182.88 54.84 178.06 C 51.95 172.35 49.49 166.43 47.48 160.35 C 40.01 160.23 32.52 160.56 25.06 160.21 C 19.68 160.08 15.04 155.35 14.97 149.98 C 14.65 138.65 14.97 127.30 14.82 115.95 C 14.85 112.01 14.58 107.55 17.29 104.34 C 19.53 101.34 23.36 100.19 26.96 100.23 C 33.80 100.17 40.64 100.24 47.48 100.23 C 49.54 94.15 51.98 88.22 54.84 82.48 C 50.27 77.94 45.73 73.37 41.16 68.84 C 38.98 66.64 36.79 64.10 36.43 60.89 C 35.72 56.98 37.81 53.24 40.55 50.60 C 48.72 42.44 56.91 34.29 65.06 26.10 C 67.28 23.92 69.88 21.79 73.12 21.53 C 76.71 21.03 80.15 22.82 82.63 25.31 C 87.57 30.16 92.42 35.11 97.34 40.00 C 103.07 37.13 108.98 34.65 115.08 32.67 C 115.11 26.11 115.07 19.55 115.08 12.99 C 114.34 6.59 118.99 0.18 125.67 0.00 Z" />
<path fill="#fe2d02" opacity="1.00" d=" M 134.90 80.84 C 153.99 76.69 174.75 84.98 186.05 100.84 C 167.74 106.44 150.62 116.49 137.77 130.80 C 127.15 141.91 119.56 155.52 113.87 169.71 C 105.04 162.39 98.16 152.44 95.84 141.09 C 93.04 128.33 95.56 114.58 102.47 103.52 C 109.49 91.88 121.53 83.38 134.90 80.84 Z" />
<path fill="#fe2d02" opacity="1.00" d=" M 250.09 100.22 C 256.30 100.18 262.67 99.74 268.75 101.25 C 272.83 102.32 275.11 106.36 275.37 110.36 C 267.26 106.20 258.83 102.81 250.09 100.22 Z" />
<path fill="#fe2d02" opacity="1.00" d=" M 208.11 122.13 C 227.37 119.65 247.48 123.78 264.03 134.00 C 281.86 144.76 295.04 162.39 301.57 182.05 C 306.37 195.81 308.15 210.48 308.02 225.01 C 307.32 259.91 296.84 294.97 276.49 323.50 C 268.88 333.75 259.85 343.21 248.79 349.76 C 238.20 356.30 225.45 359.69 213.01 358.08 C 198.86 356.47 186.11 348.81 175.82 339.28 C 159.37 323.64 148.19 303.26 140.63 282.04 C 133.02 259.94 129.32 236.38 130.78 213.02 C 132.16 193.12 137.90 173.10 149.76 156.85 C 163.24 137.80 184.96 124.96 208.11 122.13 Z" />
<path fill="#fe2d02" opacity="1.00" d=" M 328.36 181.49 C 330.87 179.65 333.88 178.65 337.00 178.72 C 350.00 178.72 362.99 178.71 375.98 178.72 C 379.95 178.65 384.12 180.06 386.50 183.39 C 388.66 186.10 388.96 189.71 388.96 193.05 C 388.93 200.01 388.94 206.97 388.94 213.93 C 395.51 216.11 401.91 218.75 408.09 221.87 C 413.23 216.75 418.36 211.62 423.47 206.48 C 425.58 204.49 427.97 202.46 430.96 202.07 C 435.05 201.11 439.16 203.07 442.01 205.93 C 451.20 215.08 460.35 224.28 469.53 233.43 C 472.36 236.19 474.49 240.04 473.86 244.11 C 473.63 247.39 471.52 250.08 469.32 252.35 C 464.18 257.47 459.04 262.59 453.94 267.73 C 457.10 273.90 459.72 280.30 461.91 286.87 C 469.94 286.97 477.99 286.69 486.01 287.00 C 491.83 287.13 496.89 292.21 497.00 298.03 C 497.30 311.36 497.05 324.70 497.16 338.03 C 497.28 342.03 496.18 346.33 492.91 348.90 C 490.24 351.31 486.49 351.76 483.04 351.73 C 475.99 351.71 468.95 351.72 461.91 351.72 C 459.73 358.29 457.07 364.67 453.94 370.84 C 458.97 375.87 464.00 380.91 469.06 385.91 C 471.20 388.10 473.34 390.65 473.75 393.81 C 474.65 397.90 472.71 401.99 469.84 404.83 C 460.69 414.01 451.51 423.17 442.35 432.34 C 439.04 435.89 433.94 437.71 429.22 436.16 C 426.12 428.86 423.55 421.30 419.51 414.44 C 413.22 401.89 404.73 390.64 395.60 380.03 C 408.62 371.44 419.05 358.83 424.37 344.12 C 429.68 329.77 430.29 313.69 425.96 299.00 C 420.61 280.54 407.52 264.51 390.55 255.50 C 372.70 245.80 350.71 244.33 331.73 251.58 C 334.90 228.28 334.64 204.28 328.36 181.49 Z" />
<path fill="#fe2d02" opacity="1.00" d=" M 327.46 272.58 C 338.62 265.72 352.16 262.70 365.14 264.81 C 381.36 267.25 396.16 277.49 404.30 291.71 C 410.08 301.66 412.65 313.46 411.37 324.91 C 409.74 342.72 398.42 358.92 382.87 367.52 C 360.58 347.94 333.07 334.45 303.91 328.90 C 314.58 311.45 322.24 292.32 327.46 272.58 Z" />
<path fill="#fe2d02" opacity="1.00" d=" M 83.46 378.39 C 103.63 363.82 127.78 355.12 152.49 352.64 C 160.74 360.87 169.68 368.57 180.02 374.05 C 196.88 383.39 217.10 386.64 235.97 382.47 C 255.35 378.40 272.28 366.80 285.82 352.69 C 313.82 355.28 341.03 366.30 362.67 384.30 C 377.80 396.77 390.22 412.51 398.85 430.12 C 404.27 441.08 407.73 452.84 411.73 464.35 C 413.32 469.27 415.31 474.08 416.38 479.15 C 418.48 488.88 414.59 499.57 406.82 505.76 C 402.03 509.79 395.83 511.67 389.66 512.00 L 48.60 512.00 C 38.79 511.72 29.19 506.16 24.70 497.33 C 20.73 490.10 20.69 481.28 23.51 473.65 C 29.65 456.43 34.32 438.48 43.58 422.57 C 53.45 405.17 67.20 390.02 83.46 378.39 Z" />
</g>
</svg>
