<?xml version="1.0" encoding="UTF-8" ?>
<!DOCTYPE svg PUBLIC "-//W3C//DTD SVG 1.1//EN" "http://www.w3.org/Graphics/SVG/1.1/DTD/svg11.dtd">
<svg width="25pt" height="25pt" viewBox="0 0 540 508" version="1.1" xmlns="http://www.w3.org/2000/svg">
<g id="#000000ff">
<path fill="#000000" opacity="1.00" d=" M 421.53 1.74 C 435.44 -0.09 449.65 1.91 463.01 5.96 C 490.25 14.30 513.25 34.32 526.61 59.32 C 534.70 74.15 538.79 90.84 540.00 107.62 L 540.00 115.64 C 538.97 135.99 532.65 156.18 520.76 172.83 C 515.04 181.26 507.49 188.17 500.52 195.53 C 412.61 285.93 324.71 376.34 236.80 466.74 C 218.50 485.98 194.14 499.36 168.08 504.45 C 144.16 509.37 119.03 506.89 96.09 498.77 C 71.20 489.99 49.13 473.83 32.71 453.21 C 16.75 433.31 6.07 409.23 2.06 384.03 C 0.89 377.29 0.61 370.44 0.00 363.63 L 0.00 356.43 C 0.68 348.62 1.12 340.76 2.77 333.08 C 6.50 313.92 14.40 295.60 25.71 279.70 C 35.28 266.10 47.85 255.07 59.16 242.98 C 133.43 166.53 207.61 89.97 282.00 13.63 C 293.14 25.11 304.22 36.63 315.38 48.08 C 234.67 131.14 153.89 214.12 73.18 297.18 C 62.34 308.07 54.53 321.91 50.66 336.77 C 44.02 363.38 49.30 392.69 64.74 415.36 C 76.92 433.43 95.04 447.66 115.99 453.99 C 135.57 460.08 157.43 459.64 176.29 451.29 C 187.37 446.55 197.20 439.19 205.31 430.32 C 295.71 337.39 386.05 244.41 476.42 151.45 C 486.39 141.34 492.37 127.21 492.05 112.96 C 492.55 96.08 485.40 79.30 473.38 67.53 C 462.38 56.29 446.72 49.61 430.96 49.95 C 417.61 49.85 404.44 55.56 395.02 64.95 C 327.59 134.24 260.32 203.68 192.84 272.93 C 188.80 277.18 183.91 281.20 182.33 287.11 C 178.39 299.88 187.14 314.61 199.98 317.84 C 207.14 320.10 215.37 317.96 220.54 312.53 C 279.20 252.27 337.90 192.04 396.54 131.76 C 407.78 143.20 419.04 154.64 430.10 166.26 C 372.39 225.49 314.79 284.82 257.18 344.15 C 250.89 351.03 243.48 356.98 235.00 360.94 C 217.69 369.30 196.83 369.31 179.22 361.81 C 153.83 351.29 135.96 325.36 134.59 297.99 C 133.07 277.82 140.76 257.25 155.11 243.01 C 223.54 172.48 292.04 102.04 360.52 31.56 C 376.51 14.87 398.51 4.02 421.53 1.74 Z" />
</g>
</svg>
