<?xml version="1.0" encoding="UTF-8" ?>
<!DOCTYPE svg PUBLIC "-//W3C//DTD SVG 1.1//EN" "http://www.w3.org/Graphics/SVG/1.1/DTD/svg11.dtd">
<svg width="512pt" height="512pt" viewBox="0 0 512 512" version="1.1" xmlns="http://www.w3.org/2000/svg">
<g id="#fe2d02ff">
<path fill="#fe2d02" opacity="1.00" d=" M 33.45 0.00 L 478.26 0.00 C 490.28 0.85 501.65 8.14 507.09 18.95 C 509.82 24.18 511.11 30.09 511.01 35.99 C 510.98 182.68 511.02 329.37 510.99 476.05 C 511.37 493.65 496.54 509.79 478.97 510.84 C 464.98 511.21 450.97 510.90 436.98 511.00 C 302.99 511.00 169.01 511.00 35.03 511.00 C 27.48 510.98 19.95 508.54 13.96 503.94 C 5.90 498.03 0.93 488.48 0.00 478.61 L 0.00 32.72 C 0.81 22.22 6.38 12.10 15.16 6.20 C 20.50 2.41 26.95 0.42 33.45 0.00 M 246.26 85.27 C 211.82 87.02 178.10 99.69 150.97 120.95 C 124.93 141.13 104.92 168.99 94.24 200.16 C 82.73 233.45 81.99 270.32 92.06 304.06 C 100.14 331.36 115.31 356.44 135.50 376.48 C 159.53 400.32 190.71 416.93 224.03 423.08 C 254.37 428.76 286.25 426.09 315.15 415.22 C 334.61 407.94 352.67 397.00 368.23 383.25 C 398.25 356.92 418.57 319.75 424.19 280.19 C 428.86 248.40 424.37 215.28 411.15 185.97 C 396.56 153.31 371.38 125.51 340.36 107.71 C 312.08 91.24 278.91 83.45 246.26 85.27 Z" />
<path fill="#fe2d02" opacity="1.00" d=" M 235.44 127.26 C 267.94 122.04 302.24 129.90 329.22 148.74 C 270.26 210.55 211.32 272.38 152.34 334.18 C 135.50 312.21 125.92 284.76 125.71 257.06 C 125.15 225.81 136.63 194.63 157.03 171.00 C 176.92 147.78 205.18 131.85 235.44 127.26 Z" />
<path fill="#fe2d02" opacity="1.00" d=" M 181.78 362.26 C 240.74 300.45 299.68 238.62 358.65 176.82 C 375.10 198.28 384.66 224.97 385.25 252.02 C 386.10 280.07 377.44 308.29 361.00 331.03 C 341.61 358.24 311.38 377.51 278.44 383.26 C 245.11 389.41 209.55 381.67 181.78 362.26 Z" />
</g>
<g id="#ffffffff">
<path fill="#ffffff" opacity="1.00" d=" M 246.26 85.27 C 278.91 83.45 312.08 91.24 340.36 107.71 C 371.38 125.51 396.56 153.31 411.15 185.97 C 424.37 215.28 428.86 248.40 424.19 280.19 C 418.57 319.75 398.25 356.92 368.23 383.25 C 352.67 397.00 334.61 407.94 315.15 415.22 C 286.25 426.09 254.37 428.76 224.03 423.08 C 190.71 416.93 159.53 400.32 135.50 376.48 C 115.31 356.44 100.14 331.36 92.06 304.06 C 81.99 270.32 82.73 233.45 94.24 200.16 C 104.92 168.99 124.93 141.13 150.97 120.95 C 178.10 99.69 211.82 87.02 246.26 85.27 M 235.44 127.26 C 205.18 131.85 176.92 147.78 157.03 171.00 C 136.63 194.63 125.15 225.81 125.71 257.06 C 125.92 284.76 135.50 312.21 152.34 334.18 C 211.32 272.38 270.26 210.55 329.22 148.74 C 302.24 129.90 267.94 122.04 235.44 127.26 M 181.78 362.26 C 209.55 381.67 245.11 389.41 278.44 383.26 C 311.38 377.51 341.61 358.24 361.00 331.03 C 377.44 308.29 386.10 280.07 385.25 252.02 C 384.66 224.97 375.10 198.28 358.65 176.82 C 299.68 238.62 240.74 300.45 181.78 362.26 Z" />
</g>
</svg>
