<?xml version="1.0" encoding="UTF-8" ?>
<!DOCTYPE svg PUBLIC "-//W3C//DTD SVG 1.1//EN" "http://www.w3.org/Graphics/SVG/1.1/DTD/svg11.dtd">
<svg width="50pt" height="50pt" viewBox="0 0 1042 1042" version="1.1" xmlns="http://www.w3.org/2000/svg">
<g id="#000000ff">
<path fill="#000000" opacity="1.00" d=" M 503.44 0.00 L 537.70 0.00 C 538.72 0.47 539.79 0.68 540.92 0.64 C 586.34 2.83 631.57 10.34 675.05 23.72 C 747.97 46.33 815.72 85.35 871.98 136.94 C 919.32 180.28 958.66 232.40 987.12 289.96 C 1015.66 347.36 1033.26 410.12 1038.97 473.97 C 1040.04 485.86 1040.32 497.81 1041.00 509.73 L 1042.00 510.33 L 1042.00 1019.71 L 1040.95 1019.82 C 1038.59 1030.11 1030.00 1039.15 1019.42 1040.75 C 1019.50 1041.07 1019.65 1041.69 1019.72 1042.00 L 508.82 1042.00 L 508.14 1040.97 C 482.36 1039.75 456.52 1038.03 431.12 1033.23 C 376.26 1023.84 323.02 1005.26 274.06 978.83 C 210.73 944.70 154.63 897.27 110.41 840.54 C 58.96 774.47 23.36 695.96 8.81 613.43 C 3.88 588.24 1.92 562.60 0.70 537.00 C 0.41 535.53 1.13 533.76 0.00 532.56 L 0.00 507.42 L 0.56 506.56 C 1.27 490.42 2.43 474.30 4.28 458.24 C 11.74 394.24 31.68 331.77 62.10 274.99 C 87.92 227.08 121.13 183.13 160.46 145.50 C 206.85 100.83 261.64 64.95 321.09 40.20 C 378.51 16.08 440.43 3.31 502.56 0.56 L 503.44 0.00 M 326.37 325.50 C 322.54 325.56 318.59 325.05 314.99 326.67 C 300.51 331.67 292.90 350.67 300.83 364.01 C 305.76 373.44 316.66 378.52 327.04 377.96 C 459.04 377.97 591.04 377.95 723.04 377.97 C 736.80 377.96 749.90 366.00 749.56 351.94 C 750.42 337.61 737.14 324.86 723.04 325.03 C 642.67 325.05 562.31 325.04 481.95 325.03 C 472.01 325.62 461.91 325.69 451.99 325.03 C 419.35 325.04 386.71 325.04 354.06 325.04 C 344.88 325.74 335.60 325.37 326.37 325.50 M 330.28 494.44 C 326.19 494.58 322.10 494.45 318.02 494.52 C 310.97 495.43 304.40 499.39 300.21 505.11 C 294.34 512.72 293.27 523.74 297.69 532.29 C 301.92 540.54 310.53 546.79 319.93 547.11 C 343.96 547.53 368.01 547.19 392.05 547.30 C 501.05 547.30 610.06 547.29 719.07 547.30 C 729.77 547.66 740.22 540.86 744.47 531.08 C 748.09 522.65 747.02 512.31 741.30 505.06 C 736.35 498.42 728.29 494.16 719.97 494.20 C 636.00 494.20 552.03 494.20 468.06 494.20 C 422.13 494.32 376.19 493.93 330.28 494.44 M 311.52 664.65 C 298.47 667.75 289.46 682.12 292.41 695.21 C 294.83 707.39 306.62 716.75 318.99 716.46 C 450.99 716.45 582.99 716.46 714.99 716.46 C 721.60 716.67 728.39 714.87 733.62 710.70 C 742.17 704.54 745.54 692.91 742.86 683.08 C 740.17 671.43 728.57 663.59 716.96 663.53 C 586.30 663.56 455.64 663.54 324.98 663.54 C 320.44 663.44 315.95 663.76 311.52 664.65 Z" />
</g>
</svg>
