<?xml version="1.0" encoding="UTF-8" ?>
<!DOCTYPE svg PUBLIC "-//W3C//DTD SVG 1.1//EN" "http://www.w3.org/Graphics/SVG/1.1/DTD/svg11.dtd">
<svg width="512pt" height="512pt" viewBox="0 0 512 512" version="1.1" xmlns="http://www.w3.org/2000/svg">
<g id="#333333ff">
<path fill="#333333" opacity="1.00" d=" M 9.10 9.10 C 82.36 8.98 155.64 8.97 228.90 9.11 C 229.04 100.43 229.04 191.77 228.90 283.10 C 227.60 283.20 226.31 283.28 225.01 283.34 C 165.34 283.30 105.67 283.33 46.00 283.32 C 33.70 283.16 21.39 283.63 9.10 283.10 C 8.97 191.77 8.98 100.43 9.10 9.10 Z" />
<path fill="#333333" opacity="1.00" d=" M 283.10 9.11 C 356.36 8.97 429.63 8.98 502.90 9.10 C 503.09 62.40 502.89 115.72 503.00 169.02 C 502.97 170.58 502.87 172.14 502.79 173.71 C 429.59 173.67 356.40 173.65 283.21 173.71 C 282.76 145.49 283.15 117.24 283.02 89.00 C 283.07 62.37 282.90 35.73 283.10 9.11 Z" />
<path fill="#333333" opacity="1.00" d=" M 283.11 228.90 C 284.40 228.79 285.69 228.71 286.99 228.66 C 357.66 228.69 428.34 228.68 499.01 228.67 C 500.30 228.72 501.59 228.80 502.90 228.90 C 503.03 320.23 503.02 411.57 502.90 502.90 C 429.63 503.02 356.36 503.03 283.10 502.90 C 282.90 442.60 283.08 382.30 283.01 322.00 C 283.09 290.97 282.89 259.93 283.11 228.90 Z" />
<path fill="#333333" opacity="1.00" d=" M 9.21 338.29 C 82.41 338.34 155.60 338.34 228.79 338.29 C 229.26 391.18 228.81 444.10 229.02 497.00 C 229.03 498.96 228.96 500.92 228.90 502.89 C 155.64 503.03 82.36 503.02 9.10 502.90 C 8.93 466.27 9.08 429.63 9.02 393.00 C 9.16 374.76 8.77 356.51 9.21 338.29 Z" />
</g>
</svg>
