<?xml version="1.0" encoding="UTF-8" ?>
<!DOCTYPE svg PUBLIC "-//W3C//DTD SVG 1.1//EN" "http://www.w3.org/Graphics/SVG/1.1/DTD/svg11.dtd">
<svg width="512pt" height="512pt" viewBox="0 0 512 512" version="1.1" xmlns="http://www.w3.org/2000/svg">
<g id="#fe2d02ff">
<path fill="#fe2d02" opacity="1.00" d=" M 9.09 9.10 C 82.36 8.97 155.64 8.97 228.91 9.10 C 229.08 96.73 228.90 184.36 229.00 271.99 C 229.07 275.70 229.02 279.42 228.89 283.13 C 158.27 283.54 87.63 283.13 17.00 283.33 C 14.37 283.34 11.73 283.25 9.10 283.13 C 8.96 191.79 8.98 100.44 9.09 9.10 Z" />
<path fill="#fe2d02" opacity="1.00" d=" M 283.09 9.10 C 356.36 8.97 429.64 8.97 502.90 9.10 C 503.09 42.06 502.92 75.03 502.98 108.00 C 502.87 129.90 503.19 151.81 502.83 173.71 C 429.61 173.72 356.39 173.73 283.17 173.70 C 282.82 145.14 283.13 116.56 283.02 88.00 C 283.09 61.70 282.91 35.40 283.09 9.10 Z" />
<path fill="#fe2d02" opacity="1.00" d=" M 283.11 228.87 C 344.73 228.48 406.37 228.82 468.00 228.71 C 479.63 228.83 491.27 228.46 502.89 228.87 C 503.04 320.21 503.02 411.56 502.90 502.90 C 429.64 503.02 356.36 503.04 283.09 502.90 C 282.99 411.56 282.96 320.21 283.11 228.87 Z" />
<path fill="#fe2d02" opacity="1.00" d=" M 9.17 338.30 C 82.39 338.28 155.61 338.27 228.83 338.30 C 229.12 393.16 228.97 448.04 228.91 502.90 C 155.64 503.03 82.36 503.03 9.10 502.90 C 8.91 461.60 9.08 420.30 9.02 379.00 C 9.14 365.43 8.79 351.86 9.17 338.30 Z" />
</g>
</svg>
