<?xml version="1.0" encoding="UTF-8" ?>
<!DOCTYPE svg PUBLIC "-//W3C//DTD SVG 1.1//EN" "http://www.w3.org/Graphics/SVG/1.1/DTD/svg11.dtd">
<svg width="512pt" height="512pt" viewBox="0 0 512 512" version="1.1" xmlns="http://www.w3.org/2000/svg">
<g id="#fe2d02ff">
<path fill="#fe2d02" opacity="1.00" d=" M 184.24 26.28 C 185.82 26.06 187.42 26.03 189.02 26.03 C 234.69 26.12 280.37 25.96 326.04 26.11 C 341.05 26.72 353.51 40.16 354.19 54.96 C 354.30 74.96 354.17 94.96 354.25 114.96 C 354.40 122.07 352.39 129.33 348.04 135.02 C 343.17 141.66 335.29 146.01 327.10 146.73 C 279.71 146.74 232.31 146.73 184.92 146.73 C 170.31 145.74 158.39 132.59 157.79 118.13 C 157.76 97.07 157.73 76.01 157.81 54.95 C 158.50 40.78 169.92 27.71 184.24 26.28 Z" />
<path fill="#fe2d02" opacity="1.00" d=" M 240.83 189.87 C 241.58 181.38 250.55 174.91 258.88 176.89 C 265.30 177.78 270.45 183.57 271.16 189.89 C 271.16 206.27 271.16 222.66 271.16 239.04 C 271.28 241.04 270.07 242.75 269.26 244.47 C 328.10 244.56 386.95 244.44 445.80 244.53 C 453.71 244.96 459.73 252.42 459.70 260.12 C 459.80 279.42 459.68 298.72 459.76 318.02 C 459.69 321.81 459.16 325.82 456.82 328.93 C 454.25 332.82 449.74 334.94 445.20 335.41 C 437.12 336.04 429.18 329.24 428.94 321.05 C 428.88 305.64 428.88 290.23 428.94 274.82 C 313.65 274.80 198.35 274.80 83.06 274.82 C 83.15 292.20 83.06 309.59 83.11 326.98 C 83.12 330.53 82.06 334.13 79.98 337.03 C 75.36 343.09 65.93 344.73 59.56 340.52 C 54.95 337.65 52.38 332.43 52.29 327.08 C 52.23 304.73 52.23 282.37 52.29 260.02 C 52.31 252.36 58.32 244.96 66.19 244.53 C 125.04 244.44 183.89 244.56 242.74 244.47 C 241.93 242.76 240.72 241.08 240.83 239.10 C 240.84 222.69 240.84 206.28 240.83 189.87 Z" />
<path fill="#fe2d02" opacity="1.00" d=" M 0.00 398.02 C 2.12 384.11 14.87 372.65 29.02 372.55 C 55.02 372.58 81.01 372.55 107.01 372.57 C 122.02 372.92 135.15 386.02 135.78 400.98 C 135.88 419.66 135.81 438.35 135.81 457.04 C 135.41 472.08 122.26 485.67 107.09 485.91 C 81.03 485.99 54.98 485.94 28.92 485.94 C 14.77 485.76 1.97 474.31 0.00 460.32 L 0.00 398.02 Z" />
<path fill="#fe2d02" opacity="1.00" d=" M 209.41 373.77 C 211.88 373.08 214.44 372.63 217.01 372.56 C 242.34 372.55 267.68 372.59 293.02 372.54 C 304.71 372.07 316.36 379.17 321.10 389.91 C 323.51 394.53 324.11 399.84 323.90 404.99 C 323.88 422.32 323.88 439.65 323.90 456.99 C 323.69 470.09 313.72 482.28 300.93 485.09 C 296.40 486.27 291.69 485.91 287.06 485.95 C 263.68 485.95 240.30 485.95 216.92 485.95 C 202.07 485.69 188.82 472.95 188.10 458.11 C 188.11 439.05 188.12 419.99 188.09 400.94 C 188.49 388.56 197.61 377.30 209.41 373.77 Z" />
<path fill="#fe2d02" opacity="1.00" d=" M 376.16 403.02 C 375.69 386.96 389.88 372.30 406.01 372.54 C 431.68 372.59 457.35 372.54 483.02 372.57 C 497.40 372.69 510.32 384.54 512.00 398.77 L 512.00 460.08 C 510.12 474.13 497.35 485.91 483.07 485.94 C 457.01 485.96 430.95 485.96 404.89 485.94 C 389.72 485.65 376.54 472.13 376.19 457.05 C 376.14 439.04 376.20 421.03 376.16 403.02 Z" />
</g>
</svg>
