<?xml version="1.0" encoding="UTF-8" ?>
<!DOCTYPE svg PUBLIC "-//W3C//DTD SVG 1.1//EN" "http://www.w3.org/Graphics/SVG/1.1/DTD/svg11.dtd">
<svg width="512pt" height="512pt" viewBox="0 0 512 512" version="1.1" xmlns="http://www.w3.org/2000/svg">
<g id="#303030ff">
<path fill="#303030" opacity="1.00" d=" M 184.22 26.28 C 185.48 26.13 186.74 26.05 188.02 26.04 C 233.68 26.08 279.35 26.02 325.01 26.07 C 340.41 26.13 353.52 39.79 354.19 54.95 C 354.31 74.96 354.17 94.98 354.25 114.99 C 354.37 121.64 352.65 128.44 348.82 133.93 C 343.98 141.19 335.67 146.03 326.99 146.72 C 279.98 146.76 232.98 146.71 185.97 146.74 C 173.11 146.40 161.53 136.39 158.74 123.92 C 157.30 118.74 157.85 113.35 157.77 108.05 C 157.79 90.38 157.71 72.70 157.81 55.04 C 158.45 40.84 169.89 27.73 184.22 26.28 Z" />
<path fill="#303030" opacity="1.00" d=" M 240.81 191.95 C 240.38 184.86 245.93 177.94 253.01 176.91 C 261.72 174.71 271.24 182.05 271.19 191.03 C 271.12 207.04 271.18 223.06 271.16 239.07 C 271.26 241.06 270.05 242.75 269.29 244.49 C 327.87 244.50 386.44 244.50 445.01 244.49 C 453.17 244.47 459.72 252.05 459.69 259.99 C 459.82 279.31 459.68 298.65 459.76 317.98 C 459.67 321.49 459.28 325.21 457.29 328.22 C 453.63 334.32 445.26 337.13 438.70 334.34 C 432.90 332.13 428.69 326.20 428.90 319.93 C 428.93 304.89 428.86 289.86 428.94 274.82 C 313.65 274.80 198.35 274.80 83.06 274.82 C 83.15 291.88 83.05 308.94 83.12 326.01 C 83.24 329.89 82.28 333.89 79.96 337.05 C 74.76 343.93 63.38 344.96 57.29 338.69 C 53.30 335.36 52.20 329.93 52.23 324.98 C 52.32 303.32 52.18 281.65 52.30 260.00 C 52.27 252.06 58.82 244.47 66.98 244.50 C 125.55 244.49 184.13 244.51 242.70 244.49 C 241.94 242.75 240.74 241.07 240.84 239.09 C 240.81 223.38 240.88 207.66 240.81 191.95 Z" />
<path fill="#303030" opacity="1.00" d=" M 0.00 397.95 C 2.18 384.06 14.89 372.65 29.03 372.55 C 55.01 372.58 81.00 372.54 106.98 372.57 C 121.99 372.90 135.13 385.99 135.77 400.94 C 135.90 419.30 135.78 437.66 135.83 456.02 C 135.99 471.43 122.63 485.68 107.10 485.91 C 81.04 485.99 54.98 485.94 28.92 485.94 C 14.78 485.76 2.05 474.35 0.00 460.42 L 0.00 397.95 Z" />
<path fill="#303030" opacity="1.00" d=" M 211.27 373.30 C 213.47 372.81 215.72 372.52 217.98 372.54 C 243.97 372.61 269.97 372.50 295.96 372.60 C 311.03 373.31 324.09 386.92 323.90 402.05 C 323.87 420.36 323.89 438.67 323.89 456.98 C 323.69 470.07 313.76 482.23 301.00 485.07 C 297.41 486.00 293.69 486.02 290.02 485.96 C 265.68 485.94 241.34 485.96 216.99 485.95 C 206.11 485.63 195.60 478.93 191.04 468.99 C 188.87 464.69 187.81 459.86 188.09 455.05 C 188.13 437.02 188.10 419.00 188.10 400.98 C 188.47 387.93 198.60 376.14 211.27 373.30 Z" />
<path fill="#303030" opacity="1.00" d=" M 378.99 390.08 C 383.66 379.69 394.60 372.52 406.01 372.54 C 431.67 372.59 457.33 372.54 482.99 372.57 C 497.36 372.67 510.25 384.48 512.00 398.69 L 512.00 460.06 C 510.13 474.12 497.36 485.91 483.06 485.93 C 457.02 485.96 430.97 485.96 404.93 485.93 C 389.73 485.68 376.52 472.13 376.19 457.03 C 376.13 439.69 376.22 422.35 376.15 405.01 C 375.96 399.90 376.78 394.72 378.99 390.08 Z" />
</g>
</svg>
