<?xml version="1.0" encoding="UTF-8" ?>
<!DOCTYPE svg PUBLIC "-//W3C//DTD SVG 1.1//EN" "http://www.w3.org/Graphics/SVG/1.1/DTD/svg11.dtd">
<svg width="512pt" height="512pt" viewBox="0 0 512 512" version="1.1" xmlns="http://www.w3.org/2000/svg">
<g id="#303030ff">
<path fill="#303030" opacity="1.00" d=" M 31.56 0.00 L 479.45 0.00 C 485.93 1.08 492.37 3.29 497.55 7.45 C 505.91 13.94 511.09 24.37 511.00 34.97 C 511.00 179.31 510.99 323.65 511.00 468.00 C 511.03 474.91 511.43 482.11 508.63 488.62 C 503.71 501.83 490.14 511.15 476.04 510.99 C 330.69 511.03 185.35 510.97 40.01 511.02 C 33.08 511.26 25.90 510.73 19.66 507.43 C 8.78 502.31 1.48 491.26 0.00 479.45 L 0.00 31.56 C 1.19 23.40 4.70 15.45 10.79 9.77 C 16.36 4.25 23.90 1.20 31.56 0.00 M 119.00 119.00 C 119.00 210.00 119.00 301.00 119.00 392.00 C 210.00 392.00 301.00 392.00 392.00 392.00 C 392.00 301.00 392.00 210.00 392.00 119.00 C 301.00 119.00 210.00 119.00 119.00 119.00 Z" />
<path fill="#303030" opacity="1.00" d=" M 173.66 173.67 C 228.22 173.56 282.78 173.57 337.34 173.67 C 337.45 228.22 337.45 282.78 337.34 337.33 C 282.78 337.43 228.22 337.44 173.66 337.33 C 173.55 282.78 173.55 228.22 173.66 173.67 Z" />
</g>
<g id="#ffffffff">
<path fill="#ffffff" opacity="1.00" d=" M 119.00 119.00 C 210.00 119.00 301.00 119.00 392.00 119.00 C 392.00 210.00 392.00 301.00 392.00 392.00 C 301.00 392.00 210.00 392.00 119.00 392.00 C 119.00 301.00 119.00 210.00 119.00 119.00 M 173.66 173.67 C 173.55 228.22 173.55 282.78 173.66 337.33 C 228.22 337.44 282.78 337.43 337.34 337.33 C 337.45 282.78 337.45 228.22 337.34 173.67 C 282.78 173.57 228.22 173.56 173.66 173.67 Z" />
</g>
</svg>
