<?xml version="1.0" encoding="UTF-8" ?>
<!DOCTYPE svg PUBLIC "-//W3C//DTD SVG 1.1//EN" "http://www.w3.org/Graphics/SVG/1.1/DTD/svg11.dtd">
<svg width="512pt" height="512pt" viewBox="0 0 512 512" version="1.1" xmlns="http://www.w3.org/2000/svg">
<g id="#fe2d02ff">
<path fill="#fe2d02" opacity="1.00" d=" M 51.86 43.83 C 58.88 25.78 77.51 13.06 96.92 13.35 C 212.26 13.27 327.61 13.34 442.96 13.31 C 453.27 13.60 463.93 12.23 473.89 15.64 C 490.87 20.89 504.47 36.27 506.94 53.93 C 506.95 148.98 507.00 244.03 506.92 339.07 C 503.83 358.19 487.91 374.16 469.04 378.05 C 459.47 379.54 449.73 379.13 440.07 379.18 C 433.05 378.96 426.02 379.29 419.00 379.07 C 401.33 379.29 383.67 379.05 366.01 378.99 C 361.44 379.45 356.86 378.98 352.30 378.71 C 351.90 388.91 352.19 399.12 352.14 409.33 C 367.45 409.32 382.75 409.29 398.05 409.34 C 403.17 409.39 408.47 411.12 411.80 415.18 C 415.22 419.17 416.62 424.89 415.11 429.95 C 414.13 435.11 409.81 438.73 405.45 441.19 C 402.64 441.55 399.87 442.36 397.02 442.33 C 342.83 442.28 288.63 442.32 234.44 442.30 C 234.03 453.24 235.60 464.38 233.27 475.16 C 229.37 489.25 215.60 499.86 200.91 499.63 C 147.26 499.72 93.61 499.66 39.96 499.66 C 32.25 499.84 24.52 497.45 18.40 492.73 C 9.82 486.33 5.07 475.65 5.07 465.05 C 5.00 438.72 5.08 412.39 5.03 386.06 C 5.09 383.40 5.60 380.75 5.13 378.10 C 4.90 368.69 5.15 359.26 5.01 349.84 C 5.21 349.56 5.62 348.98 5.82 348.69 C 5.64 348.24 5.27 347.34 5.08 346.89 C 5.05 295.96 5.02 244.94 5.05 193.97 C 5.05 185.02 8.02 175.85 14.38 169.39 C 20.60 162.59 29.80 158.69 38.99 158.76 C 42.04 158.72 45.10 158.76 48.15 158.79 C 48.16 129.87 48.15 100.96 48.16 72.04 C 47.96 62.54 48.05 52.71 51.86 43.83 M 87.56 49.69 C 85.39 51.13 84.14 53.48 82.66 55.54 C 82.03 57.97 81.34 60.41 81.41 62.94 C 81.41 94.90 81.37 126.87 81.43 158.83 C 121.61 158.68 161.80 158.75 201.99 158.79 C 219.05 158.99 234.09 174.02 234.47 191.04 C 234.46 242.76 234.51 294.49 234.44 346.21 C 308.62 346.17 382.81 346.20 456.99 346.19 C 460.81 345.87 464.98 345.56 468.04 342.97 C 472.63 339.96 474.95 334.38 474.69 329.00 C 474.65 239.99 474.73 150.98 474.65 61.97 C 474.85 53.14 466.64 45.87 457.98 46.25 C 339.65 46.20 221.31 46.26 102.98 46.22 C 97.73 46.13 91.81 46.10 87.56 49.69 M 38.33 404.96 C 92.74 404.84 147.16 404.92 201.57 404.92 C 201.52 334.95 201.58 264.97 201.54 195.00 C 201.49 193.83 201.40 192.67 201.27 191.51 C 146.97 191.57 92.68 191.57 38.38 191.51 C 38.22 262.66 38.32 333.81 38.33 404.96 M 237.22 379.18 C 237.30 389.24 237.23 399.31 237.26 409.37 C 264.44 409.27 291.62 409.31 318.80 409.35 C 318.85 399.30 318.76 389.25 318.86 379.20 C 306.91 378.99 294.95 379.34 283.00 379.03 C 274.66 379.22 266.29 379.39 257.96 378.94 C 253.65 379.09 249.34 379.25 245.03 379.08 C 242.42 379.16 239.82 379.20 237.22 379.18 M 38.28 427.18 C 38.35 440.37 38.26 453.57 38.33 466.76 C 92.72 466.73 147.12 466.77 201.51 466.74 C 201.66 453.54 201.41 440.35 201.64 427.15 C 183.43 427.16 165.21 427.33 147.00 427.07 C 142.33 427.27 137.66 427.27 133.00 427.07 C 116.34 427.28 99.66 427.28 83.00 427.07 C 68.10 427.35 53.19 427.12 38.28 427.18 Z" />
<path fill="#fe2d02" opacity="1.00" d=" M 104.60 439.45 C 112.99 438.05 121.54 438.90 130.00 438.73 C 134.81 438.57 139.20 441.35 141.23 445.68 C 141.49 447.11 141.79 448.55 142.16 449.97 C 141.62 455.36 137.60 460.40 131.96 460.79 C 124.28 461.03 116.59 460.86 108.91 460.88 C 102.70 460.98 97.01 455.31 97.78 449.00 C 97.91 444.74 101.06 441.41 104.60 439.45 Z" />
</g>
</svg>
