<?xml version="1.0" encoding="UTF-8" ?>
<!DOCTYPE svg PUBLIC "-//W3C//DTD SVG 1.1//EN" "http://www.w3.org/Graphics/SVG/1.1/DTD/svg11.dtd">
<svg width="512pt" height="512pt" viewBox="0 0 512 512" version="1.1" xmlns="http://www.w3.org/2000/svg">
<g id="#303030ff">
<path fill="#303030" opacity="1.00" d=" M 83.96 15.11 C 89.14 13.49 94.61 13.33 99.99 13.31 C 219.35 13.33 338.70 13.29 458.05 13.33 C 471.12 13.01 484.20 18.25 493.44 27.50 C 500.10 34.21 504.85 42.84 506.76 52.11 C 507.21 56.40 506.85 60.73 506.95 65.03 C 506.92 156.38 507.03 247.74 506.90 339.09 C 503.64 359.49 485.60 376.45 465.07 378.60 C 453.38 379.67 441.65 378.82 429.94 379.19 C 414.61 379.02 399.32 379.01 384.01 379.20 C 373.47 378.63 362.89 379.66 352.36 378.75 C 351.81 388.93 352.24 399.14 352.14 409.32 C 367.43 409.34 382.71 409.28 397.99 409.35 C 403.36 409.35 408.94 411.28 412.22 415.72 C 417.05 421.62 416.84 431.04 411.56 436.60 C 408.01 440.91 402.33 442.28 396.98 442.33 C 342.80 442.28 288.62 442.32 234.44 442.31 C 234.51 449.54 234.44 456.77 234.49 464.00 C 234.79 471.53 232.75 479.26 228.30 485.39 C 222.05 494.45 211.06 499.93 200.07 499.65 C 148.73 499.71 97.39 499.65 46.05 499.68 C 41.68 499.66 37.28 499.78 32.95 499.13 C 22.70 497.33 13.41 490.55 8.85 481.16 C 5.88 475.59 5.05 469.19 5.03 462.97 C 5.07 439.65 5.03 416.34 5.05 393.02 C 5.09 389.19 4.81 385.35 5.36 381.54 C 4.68 371.02 5.24 360.44 5.02 349.89 C 5.21 349.58 5.61 348.96 5.81 348.64 C 5.15 347.51 4.89 346.30 5.00 345.01 C 5.11 340.66 4.80 336.29 5.40 331.97 C 4.77 327.35 5.12 322.68 5.05 318.04 C 5.05 276.70 5.03 235.36 5.06 194.02 C 5.03 184.81 8.19 175.38 14.88 168.88 C 20.14 163.32 27.45 159.89 35.01 158.96 C 39.38 158.59 43.77 158.79 48.15 158.79 C 48.17 127.21 48.16 95.63 48.15 64.05 C 48.16 57.18 49.22 50.23 51.85 43.85 C 57.35 29.99 69.53 18.99 83.96 15.11 M 88.29 49.15 C 83.73 52.14 81.17 57.60 81.41 63.01 C 81.41 94.95 81.37 126.89 81.43 158.83 C 121.58 158.68 161.74 158.76 201.89 158.79 C 218.95 158.95 234.04 173.93 234.47 190.96 C 234.48 242.71 234.47 294.47 234.47 346.23 C 308.65 346.14 382.83 346.22 457.01 346.19 C 462.74 346.14 468.73 344.04 471.97 339.04 C 475.58 334.13 474.54 327.75 474.68 322.05 C 474.68 235.70 474.68 149.35 474.68 63.00 C 474.89 57.84 472.62 52.62 468.39 49.58 C 465.24 46.95 461.01 46.32 457.04 46.22 C 337.70 46.24 218.35 46.23 99.01 46.22 C 95.31 46.35 91.33 46.83 88.29 49.15 M 38.34 404.97 C 92.75 404.84 147.16 404.91 201.56 404.93 C 201.54 337.30 201.57 269.68 201.55 202.05 C 201.53 198.53 201.78 194.98 201.21 191.48 C 146.94 191.60 92.66 191.56 38.38 191.50 C 38.22 262.66 38.32 333.81 38.34 404.97 M 237.22 379.23 C 237.23 389.26 237.38 399.29 237.14 409.31 C 264.36 409.34 291.58 409.29 318.80 409.34 C 318.72 399.32 319.00 389.28 318.69 379.27 C 316.39 378.10 313.58 379.17 311.09 379.08 C 299.09 379.01 287.09 379.28 275.08 379.18 C 267.73 379.47 260.39 378.30 253.06 379.14 C 247.77 379.02 242.50 378.72 237.22 379.23 M 38.23 427.22 C 38.42 440.40 38.23 453.58 38.33 466.75 C 92.72 466.73 147.12 466.77 201.51 466.74 C 201.66 453.55 201.42 440.35 201.64 427.16 C 150.42 427.24 99.20 427.16 47.98 427.21 C 44.73 427.19 41.46 426.61 38.23 427.22 Z" />
<path fill="#303030" opacity="1.00" d=" M 97.79 450.86 C 97.11 445.31 101.49 439.63 107.09 439.05 C 113.02 438.29 119.02 438.89 124.98 438.68 C 129.54 438.70 134.88 438.31 138.39 441.80 C 140.83 443.83 141.48 447.01 142.19 449.93 C 141.62 455.31 137.64 460.40 131.98 460.78 C 124.29 461.04 116.59 460.87 108.89 460.87 C 103.40 460.92 98.07 456.48 97.79 450.86 Z" />
</g>
</svg>
