<?xml version="1.0" encoding="UTF-8" ?>
<!DOCTYPE svg PUBLIC "-//W3C//DTD SVG 1.1//EN" "http://www.w3.org/Graphics/SVG/1.1/DTD/svg11.dtd">
<svg width="700pt" height="700pt" viewBox="0 0 700 700" version="1.1" xmlns="http://www.w3.org/2000/svg">
<g id="#9fcde3fd">
<path fill="#9fcde3" opacity="1.00" d=" M 28.39 14.57 C 30.21 14.10 32.09 14.00 33.96 13.99 C 245.33 14.02 456.70 13.98 668.06 14.01 C 678.16 13.78 687.22 22.83 686.99 32.93 C 687.02 243.62 686.97 454.31 687.02 665.01 C 687.62 671.88 685.06 679.19 679.30 683.27 C 675.25 686.41 670.00 687.29 665.00 687.02 C 454.31 686.97 243.62 687.02 32.93 686.99 C 22.83 687.23 13.77 678.17 14.01 668.06 C 13.99 456.35 13.99 244.64 14.01 32.93 C 13.88 24.46 20.16 16.50 28.39 14.57 M 30.28 15.25 C 24.33 16.05 19.09 20.25 16.59 25.64 C 14.48 30.13 15.08 35.21 15.00 40.01 C 15.00 247.34 15.01 454.66 15.00 661.99 C 15.05 666.21 14.63 670.63 16.28 674.64 C 19.05 681.62 26.39 686.41 33.92 686.00 C 244.97 686.00 456.03 686.00 667.08 686.00 C 674.61 686.41 681.95 681.62 684.72 674.63 C 686.25 670.95 685.99 666.89 686.01 662.99 C 685.97 452.97 686.04 242.95 685.97 32.94 C 686.20 23.01 676.95 14.34 667.08 15.00 C 458.05 15.00 249.03 15.00 40.01 15.00 C 36.77 15.04 33.51 14.84 30.28 15.25 Z" />
</g>
<g id="#303030ff">
<path fill="#303030" opacity="1.00" d=" M 30.28 15.25 C 33.51 14.84 36.77 15.04 40.01 15.00 C 249.03 15.00 458.05 15.00 667.08 15.00 C 676.95 14.34 686.20 23.01 685.97 32.94 C 686.04 242.95 685.97 452.97 686.01 662.99 C 685.99 666.89 686.25 670.95 684.72 674.63 C 681.95 681.62 674.61 686.41 667.08 686.00 C 456.03 686.00 244.97 686.00 33.92 686.00 C 26.39 686.41 19.05 681.62 16.28 674.64 C 14.63 670.63 15.05 666.21 15.00 661.99 C 15.01 454.66 15.00 247.34 15.00 40.01 C 15.08 35.21 14.48 30.13 16.59 25.64 C 19.09 20.25 24.33 16.05 30.28 15.25 M 163.32 105.23 C 160.59 105.77 158.29 107.69 157.22 110.25 C 152.21 121.39 147.81 132.79 142.98 144.01 C 141.81 146.97 139.29 149.65 135.93 149.83 C 124.97 151.00 113.94 151.44 102.95 152.39 C 99.10 152.47 94.42 152.40 91.97 155.97 C 88.91 159.73 90.00 165.42 93.54 168.45 C 102.60 176.42 111.81 184.20 120.92 192.10 C 123.37 194.12 125.44 197.24 124.42 200.54 C 121.59 212.03 118.69 223.50 115.99 235.02 C 115.44 237.58 114.98 240.33 115.84 242.87 C 117.53 247.11 122.87 249.91 127.21 248.06 C 138.73 241.88 149.61 234.51 160.99 228.06 C 164.48 225.81 168.69 227.00 171.91 229.13 C 181.39 235.03 191.07 240.61 200.55 246.53 C 202.26 247.50 204.02 248.70 206.07 248.69 C 211.63 249.19 216.66 243.50 215.40 238.02 C 212.99 225.91 209.66 213.99 206.86 201.97 C 205.89 198.38 207.25 194.45 210.05 192.07 C 219.12 184.13 228.34 176.35 237.41 168.41 C 241.51 165.04 241.58 157.90 237.23 154.71 C 234.12 152.03 229.81 152.63 226.04 152.32 C 215.73 151.33 205.36 151.05 195.08 149.86 C 191.56 149.47 188.56 146.98 187.29 143.72 C 182.44 132.79 178.22 121.58 173.32 110.67 C 171.84 106.79 167.34 104.39 163.32 105.23 M 305.35 162.28 C 293.03 162.91 282.37 173.19 280.37 185.19 C 280.02 188.38 280.00 191.62 280.41 194.80 C 282.23 205.01 290.25 213.83 300.22 216.66 C 304.68 218.05 309.40 217.50 314.00 217.60 C 404.02 217.59 494.04 217.58 584.06 217.60 C 598.12 217.75 610.98 205.12 611.00 191.02 C 611.53 181.60 606.87 172.16 599.03 166.91 C 592.99 162.42 585.24 161.95 578.00 161.85 C 492.33 161.86 406.67 161.85 321.00 161.85 C 315.78 161.84 310.55 161.73 305.35 162.28 M 161.33 279.29 C 158.96 280.17 157.63 282.47 156.70 284.69 C 152.28 294.98 148.06 305.36 143.73 315.70 C 142.70 318.13 141.60 320.81 139.18 322.19 C 136.47 323.97 133.09 323.40 130.03 323.71 C 119.39 324.69 108.69 325.06 98.06 326.18 C 94.41 326.25 91.24 329.02 90.44 332.55 C 89.18 336.35 91.52 340.25 94.39 342.62 C 103.29 350.39 112.32 358.00 121.19 365.80 C 123.46 367.70 125.31 370.63 124.47 373.71 C 121.71 385.09 118.83 396.44 116.08 407.83 C 115.45 410.58 114.91 413.52 115.77 416.28 C 117.28 419.39 120.40 422.04 124.04 421.75 C 127.24 422.05 129.98 420.16 132.58 418.58 C 141.64 412.92 150.90 407.60 159.96 401.95 C 163.01 399.92 167.23 399.67 170.37 401.64 C 181.21 408.13 191.92 414.87 202.88 421.14 C 208.73 424.73 216.61 418.46 215.48 412.00 C 213.16 399.20 209.29 386.72 206.65 373.99 C 205.80 368.93 209.95 365.31 213.47 362.47 C 220.68 356.36 227.74 350.06 234.98 343.99 C 237.14 342.01 239.89 340.08 240.39 336.97 C 241.42 331.79 237.19 326.42 231.93 326.16 C 219.45 324.94 206.92 324.31 194.41 323.36 C 190.62 322.87 188.16 319.46 186.83 316.16 C 182.25 305.42 178.01 294.52 173.20 283.88 C 171.41 279.33 165.70 277.37 161.33 279.29 M 302.36 336.52 C 291.33 338.62 282.19 348.14 280.37 359.19 C 280.02 362.38 280.00 365.62 280.42 368.81 C 282.24 378.77 289.91 387.47 299.63 390.39 C 303.93 391.84 308.54 391.51 313.01 391.56 C 403.36 391.52 493.71 391.58 584.05 391.53 C 596.74 391.58 608.57 381.48 610.61 368.98 C 612.05 360.55 609.78 351.42 603.91 345.10 C 598.82 339.69 591.60 335.84 584.03 336.20 C 494.02 336.18 404.01 336.20 314.00 336.19 C 310.12 336.23 306.22 336.01 302.36 336.52 M 161.32 453.23 C 159.23 454.05 157.88 455.99 157.01 457.98 C 152.19 468.93 147.85 480.09 143.11 491.07 C 141.96 494.14 139.39 496.89 135.97 497.17 C 123.03 498.31 110.06 498.99 97.13 500.22 C 92.10 500.82 88.84 506.74 90.61 511.37 C 91.31 513.73 93.14 515.49 94.93 517.08 C 103.69 524.65 112.54 532.12 121.21 539.80 C 123.47 541.71 125.33 544.63 124.47 547.71 C 121.64 559.35 118.67 570.96 115.90 582.62 C 115.38 585.11 114.97 587.79 115.78 590.27 C 117.22 593.48 120.54 595.76 124.08 595.83 C 126.98 595.94 129.52 594.30 131.94 592.91 C 141.48 587.10 151.03 581.32 160.61 575.58 C 164.01 573.32 168.45 574.04 171.62 576.34 C 180.74 581.91 189.92 587.38 199.03 592.95 C 201.25 594.22 203.45 595.77 206.04 596.13 C 211.69 596.34 216.84 590.69 215.36 585.02 C 212.87 573.28 209.83 561.65 207.00 549.98 C 205.90 546.38 206.92 542.26 209.78 539.77 C 219.01 531.34 228.81 523.53 238.05 515.09 C 242.87 510.56 240.19 501.57 233.72 500.32 C 220.53 498.92 207.25 498.37 194.04 497.13 C 190.66 496.72 188.43 493.77 187.17 490.86 C 182.38 479.89 178.11 468.69 173.19 457.78 C 171.37 453.31 165.66 451.13 161.32 453.23 M 302.37 510.45 C 297.02 511.57 292.02 514.30 288.14 518.14 C 279.66 526.41 277.48 540.36 283.26 550.73 C 287.97 559.71 297.77 565.72 307.95 565.60 C 399.65 565.64 491.35 565.63 583.05 565.61 C 596.05 565.86 608.51 555.88 610.61 542.97 C 611.44 537.17 611.12 530.96 608.45 525.64 C 604.19 516.38 594.26 509.95 584.05 510.05 C 491.68 510.07 399.31 510.06 306.95 510.05 C 305.41 510.08 303.87 510.14 302.37 510.45 Z" />
</g>
</svg>
