<?xml version="1.0" encoding="UTF-8" ?>
<!DOCTYPE svg PUBLIC "-//W3C//DTD SVG 1.1//EN" "http://www.w3.org/Graphics/SVG/1.1/DTD/svg11.dtd">
<svg width="512pt" height="512pt" viewBox="0 0 512 512" version="1.1" xmlns="http://www.w3.org/2000/svg">
<g id="#662f00ff">
<path fill="#662f00" opacity="1.00" d=" M 33.38 0.00 L 478.68 0.00 C 485.95 0.78 493.06 3.51 498.63 8.32 C 506.40 14.83 511.05 24.87 510.99 35.00 C 511.01 177.99 511.00 320.98 511.00 463.97 C 510.82 472.17 511.91 480.73 508.67 488.52 C 503.79 501.80 490.18 511.17 476.03 510.98 C 329.00 511.02 181.96 510.99 34.93 510.99 C 23.38 511.05 12.04 504.93 5.77 495.23 C 2.54 490.39 0.75 484.74 0.00 479.00 L 0.00 32.74 C 0.79 22.47 6.11 12.56 14.58 6.61 C 20.02 2.59 26.66 0.44 33.38 0.00 M 256.49 136.02 C 211.01 182.14 165.61 228.34 120.06 274.39 C 119.93 313.59 120.03 352.80 120.00 392.00 C 165.51 345.83 211.00 299.65 256.52 253.50 C 302.00 299.68 347.50 345.83 393.00 392.00 C 392.98 352.81 393.05 313.63 392.96 274.45 C 347.43 228.35 302.01 182.14 256.49 136.02 Z" />
</g>
<g id="#ffffffff">
<path fill="#ffffff" opacity="1.00" d=" M 256.49 136.02 C 302.01 182.14 347.43 228.35 392.96 274.45 C 393.05 313.63 392.98 352.81 393.00 392.00 C 347.50 345.83 302.00 299.68 256.52 253.50 C 211.00 299.65 165.51 345.83 120.00 392.00 C 120.03 352.80 119.93 313.59 120.06 274.39 C 165.61 228.34 211.01 182.14 256.49 136.02 Z" />
</g>
</svg>
