<?xml version="1.0" encoding="UTF-8" ?>
<!DOCTYPE svg PUBLIC "-//W3C//DTD SVG 1.1//EN" "http://www.w3.org/Graphics/SVG/1.1/DTD/svg11.dtd">
<svg width="548pt" height="550pt" viewBox="0 0 548 550" version="1.1" xmlns="http://www.w3.org/2000/svg">
<g id="#303030ff">
<path fill="#303030" opacity="1.00" d=" M 262.19 1.09 C 311.01 -0.87 360.37 10.18 403.35 33.51 C 443.69 55.22 478.38 87.26 503.29 125.69 C 525.23 159.41 539.57 198.04 544.92 237.92 C 550.51 280.01 546.55 323.43 532.77 363.65 C 510.96 428.21 464.01 483.76 404.03 516.10 C 347.55 546.98 279.97 556.63 217.07 543.08 C 177.83 534.78 140.52 517.60 108.64 493.26 C 63.29 458.82 29.11 409.93 12.55 355.43 C 0.53 316.34 -2.35 274.55 3.60 234.12 C 11.50 180.49 35.91 129.45 72.66 89.60 C 107.89 50.99 154.45 22.85 205.06 9.74 C 223.73 4.80 242.93 2.18 262.19 1.09 M 268.29 72.36 C 244.80 73.16 221.38 77.78 199.56 86.59 C 163.57 100.87 131.98 125.86 109.56 157.40 C 89.29 185.71 76.55 219.36 73.06 254.00 C 68.66 295.55 77.50 338.43 98.20 374.76 C 114.62 403.82 138.33 428.71 166.55 446.53 C 201.25 468.61 242.91 479.57 283.97 477.39 C 322.04 475.62 359.48 462.60 390.49 440.45 C 421.88 418.20 446.76 386.85 461.18 351.17 C 473.48 320.86 478.32 287.52 474.99 254.97 C 470.49 206.78 447.70 160.66 412.42 127.56 C 386.03 102.47 352.72 84.72 317.13 76.99 C 301.12 73.49 284.68 71.94 268.29 72.36 Z" />
<path fill="#303030" opacity="1.00" d=" M 268.39 105.51 C 291.64 104.64 315.06 108.75 336.64 117.46 C 366.99 129.62 393.60 150.83 412.30 177.65 C 432.24 205.93 443.01 240.46 443.02 275.04 C 443.06 315.29 428.25 355.40 401.81 385.80 C 378.63 412.88 346.66 432.34 311.90 440.29 C 273.53 449.19 232.05 444.18 197.06 425.99 C 165.26 409.67 138.93 383.01 122.96 351.03 C 102.89 311.37 99.45 263.76 113.58 221.62 C 125.53 185.24 150.25 153.27 182.41 132.50 C 207.89 115.90 237.97 106.33 268.39 105.51 M 267.40 149.47 C 256.16 152.25 247.33 163.26 247.89 174.96 C 248.22 189.01 249.48 203.01 250.09 217.04 C 251.92 248.65 253.74 280.26 255.50 311.87 C 255.98 321.24 264.55 329.41 273.99 329.04 C 282.59 329.35 290.73 322.55 292.13 314.10 C 293.24 307.81 292.66 301.39 293.43 295.07 C 295.25 263.38 296.98 231.70 298.89 200.01 C 299.06 190.29 300.59 180.60 299.91 170.87 C 298.72 162.55 293.16 155.04 285.61 151.36 C 280.04 148.51 273.44 148.13 267.40 149.47 M 269.49 346.63 C 265.49 347.29 261.62 348.86 258.36 351.29 C 245.55 360.55 243.97 380.92 254.30 392.60 C 263.25 403.10 280.73 404.19 291.13 395.27 C 302.22 385.83 303.43 367.59 294.90 356.11 C 289.18 348.40 278.79 344.96 269.49 346.63 Z" />
</g>
</svg>
