<?xml version="1.0" encoding="UTF-8" ?>
<!DOCTYPE svg PUBLIC "-//W3C//DTD SVG 1.1//EN" "http://www.w3.org/Graphics/SVG/1.1/DTD/svg11.dtd">
<svg width="512pt" height="512pt" viewBox="0 0 512 512" version="1.1" xmlns="http://www.w3.org/2000/svg">
<g id="#303030ff">
<path fill="#303030" opacity="1.00" d=" M 83.55 7.07 C 96.28 7.08 109.02 7.02 121.75 7.11 C 121.65 19.87 121.73 32.63 121.70 45.39 C 210.86 45.39 300.01 45.44 389.16 45.37 C 389.13 32.61 389.22 19.86 389.11 7.10 C 401.84 7.03 414.57 7.08 427.30 7.07 C 427.32 19.86 427.24 32.66 427.34 45.45 C 435.24 45.37 443.15 45.38 451.05 45.44 C 476.04 47.16 498.60 67.37 502.62 92.15 C 504.70 94.10 503.43 97.50 503.90 100.05 C 503.98 215.04 503.91 330.03 503.94 445.03 C 503.87 448.67 504.00 452.33 503.49 455.95 C 503.27 456.18 502.84 456.62 502.63 456.85 C 498.93 479.22 480.19 498.06 458.01 502.50 C 455.11 503.58 452.07 504.09 448.96 503.91 C 336.32 503.96 223.68 503.92 111.04 503.93 C 93.68 503.87 76.32 504.05 58.97 503.84 C 57.40 503.51 55.15 504.29 54.18 502.59 C 27.58 498.54 6.34 472.85 7.07 446.01 C 7.07 332.01 7.07 218.01 7.06 104.01 C 6.51 91.58 10.80 79.11 18.06 69.08 C 27.32 56.12 42.19 47.43 57.98 45.51 C 66.50 45.27 75.02 45.45 83.55 45.41 C 83.57 32.63 83.56 19.85 83.55 7.07 M 50.97 89.03 C 47.47 92.78 45.36 97.85 45.38 103.00 C 45.41 121.94 45.43 140.88 45.37 159.81 C 185.38 159.92 325.39 159.74 465.40 159.90 C 465.53 141.27 465.38 122.63 465.48 104.00 C 465.57 99.53 464.29 94.99 461.69 91.34 C 458.51 86.44 452.56 84.11 446.96 83.57 C 440.36 83.55 433.77 83.47 427.17 83.65 C 427.54 96.28 427.03 108.92 427.44 121.55 C 414.67 121.89 401.89 121.63 389.12 121.69 C 389.21 108.99 389.13 96.29 389.17 83.59 C 300.01 83.51 210.85 83.56 121.70 83.56 C 121.73 96.27 121.65 108.97 121.74 121.68 C 108.96 121.63 96.17 121.89 83.40 121.55 C 83.76 108.89 83.45 96.22 83.56 83.55 C 77.70 83.54 71.84 83.58 65.98 83.52 C 60.54 83.38 54.94 85.24 50.97 89.03 M 45.37 198.22 C 45.45 281.14 45.37 364.05 45.41 446.96 C 45.78 453.09 48.89 459.43 54.40 462.48 C 58.47 464.91 63.32 465.75 68.02 465.47 C 194.35 465.42 320.68 465.47 447.01 465.44 C 453.33 464.97 459.85 461.66 462.81 455.85 C 465.25 451.68 465.71 446.73 465.46 442.00 C 465.44 360.74 465.45 279.47 465.46 198.20 C 325.43 198.22 185.40 198.17 45.37 198.22 Z" />
<path fill="#303030" opacity="1.00" d=" M 159.74 236.51 C 172.57 236.18 185.41 236.35 198.24 236.42 C 198.15 249.11 198.22 261.79 198.21 274.47 C 185.42 274.51 172.62 274.53 159.83 274.46 C 159.79 261.81 159.96 249.16 159.74 236.51 Z" />
<path fill="#303030" opacity="1.00" d=" M 236.31 236.37 C 249.05 236.35 261.80 236.30 274.54 236.39 C 274.46 249.09 274.51 261.79 274.52 274.49 C 261.80 274.54 249.09 274.44 236.38 274.54 C 236.28 261.82 236.41 249.09 236.31 236.37 Z" />
<path fill="#303030" opacity="1.00" d=" M 312.62 236.39 C 325.36 236.30 338.10 236.35 350.84 236.37 C 350.79 249.06 350.72 261.75 350.88 274.44 C 338.13 274.58 325.39 274.47 312.65 274.49 C 312.64 261.79 312.70 249.09 312.62 236.39 Z" />
<path fill="#303030" opacity="1.00" d=" M 389.12 236.36 C 401.89 236.41 414.66 236.18 427.42 236.48 C 427.13 249.14 427.36 261.82 427.30 274.49 C 414.57 274.49 401.84 274.54 389.11 274.47 C 389.20 261.77 389.18 249.06 389.12 236.36 Z" />
<path fill="#303030" opacity="1.00" d=" M 83.55 312.66 C 96.30 312.69 109.04 312.57 121.78 312.72 C 121.62 325.40 121.71 338.09 121.74 350.77 C 109.02 350.85 96.30 350.73 83.58 350.83 C 83.52 338.11 83.58 325.38 83.55 312.66 Z" />
<path fill="#303030" opacity="1.00" d=" M 159.84 312.69 C 172.63 312.63 185.41 312.65 198.20 312.68 C 198.20 325.37 198.20 338.07 198.20 350.77 C 185.43 350.84 172.67 350.75 159.90 350.81 C 159.76 338.10 159.88 325.39 159.84 312.69 Z" />
<path fill="#303030" opacity="1.00" d=" M 236.31 350.77 C 236.41 338.06 236.28 325.34 236.38 312.63 C 249.08 312.68 261.79 312.64 274.49 312.65 C 274.53 325.36 274.46 338.07 274.53 350.77 C 261.79 350.81 249.05 350.81 236.31 350.77 Z" />
<path fill="#303030" opacity="1.00" d=" M 312.66 312.66 C 325.38 312.66 338.10 312.63 350.82 312.67 C 350.79 325.37 350.76 338.07 350.84 350.77 C 338.13 350.87 325.41 350.70 312.70 350.86 C 312.60 338.12 312.68 325.39 312.66 312.66 Z" />
<path fill="#303030" opacity="1.00" d=" M 389.14 312.67 C 401.86 312.64 414.58 312.65 427.29 312.66 C 427.24 325.40 427.39 338.14 427.22 350.88 C 414.52 350.66 401.82 350.88 389.12 350.77 C 389.20 338.07 389.16 325.37 389.14 312.67 Z" />
<path fill="#303030" opacity="1.00" d=" M 83.55 389.16 C 96.28 389.18 109.01 389.13 121.74 389.19 C 121.59 401.92 121.88 414.67 121.59 427.40 C 108.92 427.15 96.24 427.37 83.56 427.29 C 83.55 414.58 83.56 401.87 83.55 389.16 Z" />
<path fill="#303030" opacity="1.00" d=" M 159.84 389.21 C 172.63 389.11 185.42 389.15 198.21 389.19 C 198.19 401.89 198.21 414.58 198.20 427.28 C 185.41 427.30 172.63 427.32 159.84 427.27 C 159.84 414.58 159.84 401.90 159.84 389.21 Z" />
<path fill="#303030" opacity="1.00" d=" M 236.31 389.19 C 249.04 389.13 261.78 389.18 274.51 389.16 C 274.49 401.87 274.51 414.58 274.50 427.29 C 261.81 427.33 249.11 427.21 236.42 427.36 C 236.23 414.63 236.44 401.91 236.31 389.19 Z" />
</g>
</svg>
