<?xml version="1.0" encoding="UTF-8" ?>
<!DOCTYPE svg PUBLIC "-//W3C//DTD SVG 1.1//EN" "http://www.w3.org/Graphics/SVG/1.1/DTD/svg11.dtd">
<svg width="512pt" height="512pt" viewBox="0 0 512 512" version="1.1" xmlns="http://www.w3.org/2000/svg">
<g id="#fe2d02ff">
<path fill="#fe2d02" opacity="1.00" d=" M 83.54 7.07 C 96.28 7.07 109.01 7.04 121.74 7.09 C 121.65 19.86 121.74 32.63 121.70 45.40 C 210.85 45.39 300.01 45.44 389.17 45.37 C 389.13 32.61 389.23 19.86 389.11 7.10 C 401.84 7.02 414.57 7.08 427.30 7.07 C 427.22 19.83 427.42 32.59 427.20 45.35 C 436.51 45.57 445.84 45.13 455.15 45.66 C 465.06 47.83 474.87 51.62 482.62 58.38 C 492.35 66.02 498.79 77.13 502.29 88.87 C 502.36 90.15 502.43 91.44 502.49 92.73 L 503.51 92.32 C 504.41 110.19 503.71 128.10 503.93 145.99 C 503.93 233.00 503.93 320.02 503.93 407.03 C 503.74 423.50 504.36 440.00 503.55 456.46 C 503.27 456.47 502.71 456.49 502.43 456.50 C 502.39 457.40 502.31 459.21 502.28 460.11 C 499.67 468.19 496.27 476.20 490.57 482.63 C 482.92 492.30 471.90 498.88 460.12 502.21 C 458.31 502.43 456.51 502.61 454.71 502.79 C 454.78 503.06 454.91 503.60 454.97 503.87 C 328.31 504.02 201.65 503.89 74.99 503.93 C 68.08 503.87 61.16 504.18 54.27 503.46 L 54.67 502.46 C 48.74 502.44 43.27 499.56 37.94 497.25 C 24.89 490.18 14.58 478.24 9.85 464.14 C 9.11 461.78 8.48 459.40 8.19 456.94 C 6.56 454.70 7.44 451.63 7.10 449.05 C 7.03 344.71 7.09 240.37 7.07 136.03 C 7.13 123.01 6.94 109.99 7.17 96.97 C 7.38 95.32 6.95 93.36 8.23 92.04 C 8.57 90.38 8.22 88.45 9.42 87.07 C 9.51 86.52 9.69 85.41 9.78 84.86 C 16.86 63.73 36.69 47.38 59.01 45.46 C 67.19 45.33 75.38 45.43 83.57 45.40 C 83.54 32.63 83.58 19.85 83.54 7.07 M 46.07 98.07 C 45.11 100.59 45.43 103.33 45.39 105.97 C 45.40 123.92 45.43 141.87 45.37 159.82 C 185.40 159.86 325.43 159.83 465.46 159.84 C 465.35 139.87 465.62 119.89 465.33 99.93 C 464.69 98.65 464.44 97.24 464.19 95.85 C 462.54 92.41 460.55 88.86 457.13 86.90 C 454.73 85.19 451.84 84.58 449.11 83.67 C 441.84 83.40 434.56 83.63 427.29 83.54 C 427.30 96.26 427.27 108.97 427.31 121.69 C 414.58 121.71 401.84 121.73 389.11 121.68 C 389.23 108.98 389.12 96.28 389.17 83.59 C 300.01 83.51 210.85 83.57 121.70 83.56 C 121.74 96.26 121.64 108.97 121.75 121.68 C 109.01 121.72 96.27 121.72 83.52 121.68 C 83.61 108.97 83.52 96.26 83.57 83.56 C 77.04 83.57 70.51 83.51 63.98 83.56 C 55.65 83.83 47.72 89.73 46.07 98.07 M 45.37 198.22 C 45.44 281.18 45.38 364.14 45.39 447.10 C 45.35 448.40 45.68 449.68 46.08 450.91 C 47.74 459.65 56.38 465.50 65.00 465.47 C 193.02 465.34 321.05 465.62 449.08 465.33 C 450.36 464.73 451.75 464.43 453.15 464.17 C 458.21 462.17 462.18 458.24 464.18 453.17 C 464.55 451.11 465.38 449.13 465.45 447.02 C 465.46 364.08 465.43 281.14 465.46 198.20 C 325.43 198.22 185.40 198.17 45.37 198.22 Z" />
<path fill="#fe2d02" opacity="1.00" d=" M 159.81 236.43 C 172.61 236.27 185.42 236.34 198.22 236.39 C 198.18 249.08 198.20 261.78 198.21 274.48 C 185.42 274.51 172.62 274.53 159.83 274.46 C 159.84 261.78 159.87 249.10 159.81 236.43 Z" />
<path fill="#fe2d02" opacity="1.00" d=" M 236.31 236.37 C 249.05 236.33 261.79 236.33 274.53 236.37 C 274.47 249.07 274.49 261.78 274.52 274.49 C 261.78 274.50 249.04 274.53 236.30 274.48 C 236.37 261.77 236.37 249.07 236.31 236.37 Z" />
<path fill="#fe2d02" opacity="1.00" d=" M 312.63 236.36 C 325.37 236.34 338.11 236.32 350.85 236.37 C 350.76 249.07 350.76 261.77 350.84 274.47 C 338.11 274.53 325.38 274.49 312.65 274.50 C 312.65 261.78 312.68 249.07 312.63 236.36 Z" />
<path fill="#fe2d02" opacity="1.00" d=" M 389.11 236.37 C 401.84 236.32 414.58 236.34 427.31 236.36 C 427.27 249.07 427.29 261.78 427.30 274.50 C 414.57 274.49 401.85 274.53 389.12 274.48 C 389.19 261.78 389.20 249.07 389.11 236.37 Z" />
<path fill="#fe2d02" opacity="1.00" d=" M 83.55 312.66 C 96.28 312.66 109.01 312.64 121.73 312.67 C 121.69 325.37 121.67 338.07 121.75 350.77 C 109.00 350.81 96.26 350.82 83.52 350.76 C 83.60 338.06 83.54 325.36 83.55 312.66 Z" />
<path fill="#fe2d02" opacity="1.00" d=" M 159.84 312.68 C 172.63 312.63 185.42 312.65 198.20 312.67 C 198.20 325.37 198.21 338.07 198.20 350.77 C 185.41 350.80 172.62 350.84 159.84 350.75 C 159.84 338.06 159.84 325.37 159.84 312.68 Z" />
<path fill="#fe2d02" opacity="1.00" d=" M 236.31 350.77 C 236.39 338.06 236.33 325.36 236.34 312.65 C 249.06 312.66 261.79 312.65 274.51 312.66 C 274.50 325.37 274.48 338.08 274.52 350.79 C 261.78 350.79 249.04 350.82 236.31 350.77 Z" />
<path fill="#fe2d02" opacity="1.00" d=" M 312.65 312.66 C 325.37 312.66 338.09 312.65 350.81 312.66 C 350.80 325.36 350.75 338.07 350.84 350.77 C 338.11 350.83 325.38 350.78 312.65 350.79 C 312.66 338.08 312.66 325.37 312.65 312.66 Z" />
<path fill="#fe2d02" opacity="1.00" d=" M 389.14 312.66 C 401.86 312.65 414.58 312.66 427.29 312.66 C 427.29 325.37 427.28 338.08 427.30 350.79 C 414.57 350.78 401.84 350.83 389.11 350.77 C 389.21 338.06 389.15 325.36 389.14 312.66 Z" />
<path fill="#fe2d02" opacity="1.00" d=" M 83.54 389.17 C 96.28 389.17 109.01 389.13 121.74 389.19 C 121.67 401.88 121.70 414.58 121.72 427.28 C 109.00 427.30 96.28 427.29 83.56 427.29 C 83.55 414.58 83.57 401.87 83.54 389.17 Z" />
<path fill="#fe2d02" opacity="1.00" d=" M 159.83 389.22 C 172.62 389.11 185.42 389.16 198.21 389.19 C 198.19 401.89 198.21 414.58 198.20 427.28 C 185.42 427.30 172.63 427.31 159.84 427.27 C 159.83 414.58 159.85 401.90 159.83 389.22 Z" />
<path fill="#fe2d02" opacity="1.00" d=" M 236.31 389.18 C 249.05 389.14 261.78 389.17 274.52 389.16 C 274.48 401.87 274.51 414.58 274.50 427.29 C 261.79 427.30 249.07 427.28 236.35 427.30 C 236.31 414.59 236.39 401.89 236.31 389.18 Z" />
</g>
</svg>
