<?xml version="1.0" encoding="UTF-8" ?>
<!DOCTYPE svg PUBLIC "-//W3C//DTD SVG 1.1//EN" "http://www.w3.org/Graphics/SVG/1.1/DTD/svg11.dtd">
<svg width="28pt" height="20pt" viewBox="0 0 128 512" version="1.1" xmlns="http://www.w3.org/2000/svg">
<g id="#000000ff">
<path fill="#000000" opacity="1.00" d=" M 61.55 0.00 L 66.36 0.00 C 82.99 1.00 99.32 8.04 110.60 20.44 C 121.07 31.29 126.78 45.99 128.00 60.89 L 128.00 66.37 C 127.01 81.29 121.45 96.07 111.10 107.03 C 101.03 118.05 87.00 125.50 72.15 127.27 C 51.91 130.18 30.63 122.17 16.93 107.07 C 6.63 96.06 1.00 81.35 0.00 66.41 L 0.00 61.16 C 0.47 57.97 0.84 54.76 1.39 51.58 C 4.73 34.59 15.36 19.21 30.00 9.98 C 39.41 3.88 50.46 0.90 61.55 0.00 Z" />
<path fill="#000000" opacity="1.00" d=" M 45.70 194.84 C 54.25 192.43 63.33 191.30 72.16 192.72 C 91.09 194.91 108.48 206.43 118.41 222.61 C 124.17 231.69 126.94 242.26 128.00 252.87 L 128.00 258.37 C 127.02 272.84 121.81 287.19 112.00 298.04 C 101.89 309.58 87.50 317.41 72.24 319.26 C 51.06 322.34 28.76 313.45 15.14 297.01 C 5.89 286.30 0.99 272.43 0.00 258.41 L 0.00 253.14 C 0.88 246.17 1.85 239.13 4.64 232.62 C 11.67 214.67 27.16 200.25 45.70 194.84 Z" />
<path fill="#000000" opacity="1.00" d=" M 45.78 386.81 C 54.33 384.41 63.40 383.30 72.22 384.73 C 91.14 386.94 108.51 398.46 118.43 414.64 C 124.18 423.71 126.95 434.28 128.00 444.88 L 128.00 450.35 C 127.02 464.81 121.83 479.16 112.03 490.00 C 100.65 503.23 83.71 510.96 66.39 512.00 L 61.70 512.00 C 43.41 510.98 25.58 502.35 14.21 487.87 C 5.50 477.33 0.98 463.92 0.00 450.39 L 0.00 445.12 C 0.88 438.18 1.84 431.16 4.62 424.68 C 11.65 406.68 27.19 392.22 45.78 386.81 Z" />
</g>
</svg>
