<?xml version="1.0" encoding="UTF-8" ?>
<!DOCTYPE svg PUBLIC "-//W3C//DTD SVG 1.1//EN" "http://www.w3.org/Graphics/SVG/1.1/DTD/svg11.dtd">
<svg width="1619pt" height="77pt" viewBox="0 0 1619 77" version="1.1" xmlns="http://www.w3.org/2000/svg">
<g id="#fe2d02ff">
<path fill="#fe2d02" opacity="1.00" d=" M 0.00 0.00 L 41.43 0.00 L 41.18 0.92 C 27.44 26.27 13.85 51.71 0.00 77.00 L 0.00 0.00 Z" />
</g>
<g id="#fefdfdff">
<path fill="#fefdfd" opacity="1.00" d=" M 41.43 0.00 L 43.38 0.00 C 34.13 23.01 24.95 46.05 15.88 69.14 C 14.96 71.80 13.09 74.19 12.74 77.00 L 0.00 77.00 L 0.00 77.00 C 13.85 51.71 27.44 26.27 41.18 0.92 L 41.43 0.00 Z" />
</g>
<g id="#303030ff">
<path fill="#303030" opacity="1.00" d=" M 43.38 0.00 L 1619.00 0.00 L 1619.00 77.00 L 12.74 77.00 C 13.09 74.19 14.96 71.80 15.88 69.14 C 24.95 46.05 34.13 23.01 43.38 0.00 Z" />
</g>
</svg>
