<?xml version="1.0" encoding="UTF-8" ?>
<!DOCTYPE svg PUBLIC "-//W3C//DTD SVG 1.1//EN" "http://www.w3.org/Graphics/SVG/1.1/DTD/svg11.dtd">
<svg width="512pt" height="512pt" viewBox="0 0 512 512" version="1.1" xmlns="http://www.w3.org/2000/svg">
<g id="#ff8600ff">
<path fill="#ff8600" opacity="1.00" d=" M 33.34 0.00 L 478.63 0.00 C 490.75 1.04 502.15 8.54 507.40 19.58 C 509.76 24.36 511.00 29.67 510.99 35.00 C 511.00 182.00 511.00 329.00 511.00 476.00 C 511.02 483.53 508.49 491.01 503.98 497.03 C 497.32 506.00 486.20 511.33 475.04 511.00 C 328.02 510.98 181.00 511.04 33.98 510.97 C 16.21 510.88 0.53 495.36 0.00 477.64 L 0.00 33.36 C 0.53 23.11 5.71 13.14 14.00 7.03 C 19.54 2.78 26.39 0.45 33.34 0.00 M 200.98 123.04 C 175.01 123.10 149.04 123.04 123.06 123.07 C 123.03 149.05 123.11 175.03 123.02 201.00 C 104.66 219.31 86.34 237.66 68.01 256.00 C 86.34 274.33 104.65 292.68 123.01 310.98 C 123.13 336.96 123.02 362.95 123.06 388.93 C 149.02 388.95 174.99 388.91 200.95 388.95 C 219.30 407.29 237.64 425.65 256.00 443.98 C 274.35 425.65 292.70 407.31 311.02 388.95 C 336.99 388.90 362.97 388.95 388.94 388.93 C 388.97 362.95 388.90 336.97 388.97 311.00 C 407.33 292.68 425.65 274.33 443.99 256.00 C 425.66 237.68 407.37 219.33 389.01 201.06 C 388.85 175.06 388.99 149.07 388.94 123.07 C 362.97 123.05 337.01 123.09 311.04 123.05 C 292.70 104.70 274.36 86.35 256.00 68.02 C 237.65 86.35 219.31 104.68 200.98 123.04 Z" />
<path fill="#ff8600" opacity="1.00" d=" M 216.30 160.42 C 229.58 147.26 242.74 133.98 256.00 120.80 C 269.28 133.98 282.41 147.31 295.74 160.44 C 314.36 160.35 332.97 160.42 351.58 160.41 C 351.57 179.02 351.63 197.64 351.55 216.26 C 364.69 229.59 378.03 242.72 391.21 256.00 C 378.02 269.26 364.73 282.42 351.57 295.70 C 351.61 314.33 351.58 332.96 351.58 351.60 C 333.38 351.60 315.17 351.61 296.97 351.59 C 295.41 351.22 294.57 352.80 293.57 353.63 C 281.07 366.18 268.54 378.70 256.00 391.21 C 242.71 378.02 229.58 364.67 216.22 351.55 C 197.62 351.66 179.02 351.58 160.42 351.59 C 160.41 333.39 160.41 315.18 160.42 296.97 C 160.77 295.45 159.27 294.61 158.45 293.64 C 145.87 281.12 133.33 268.56 120.79 256.00 C 133.98 242.72 147.31 229.58 160.45 216.26 C 160.37 197.64 160.43 179.02 160.42 160.41 C 179.05 160.40 197.67 160.38 216.30 160.42 Z" />
</g>
<g id="#ffffffff">
<path fill="#ffffff" opacity="1.00" d=" M 200.98 123.04 C 219.31 104.68 237.65 86.35 256.00 68.02 C 274.36 86.35 292.70 104.70 311.04 123.05 C 337.01 123.09 362.97 123.05 388.94 123.07 C 388.99 149.07 388.85 175.06 389.01 201.06 C 407.37 219.33 425.66 237.68 443.99 256.00 C 425.65 274.33 407.33 292.68 388.97 311.00 C 388.90 336.97 388.97 362.95 388.94 388.93 C 362.97 388.95 336.99 388.90 311.02 388.95 C 292.70 407.31 274.35 425.65 256.00 443.98 C 237.64 425.65 219.30 407.29 200.95 388.95 C 174.99 388.91 149.02 388.95 123.06 388.93 C 123.02 362.95 123.13 336.96 123.01 310.98 C 104.65 292.68 86.34 274.33 68.01 256.00 C 86.34 237.66 104.66 219.31 123.02 201.00 C 123.11 175.03 123.03 149.05 123.06 123.07 C 149.04 123.04 175.01 123.10 200.98 123.04 M 216.30 160.42 C 197.67 160.38 179.05 160.40 160.42 160.41 C 160.43 179.02 160.37 197.64 160.45 216.26 C 147.31 229.58 133.98 242.72 120.79 256.00 C 133.33 268.56 145.87 281.12 158.45 293.64 C 159.27 294.61 160.77 295.45 160.42 296.97 C 160.41 315.18 160.41 333.39 160.42 351.59 C 179.02 351.58 197.62 351.66 216.22 351.55 C 229.58 364.67 242.71 378.02 256.00 391.21 C 268.54 378.70 281.07 366.18 293.57 353.63 C 294.57 352.80 295.41 351.22 296.97 351.59 C 315.17 351.61 333.38 351.60 351.58 351.60 C 351.58 332.96 351.61 314.33 351.57 295.70 C 364.73 282.42 378.02 269.26 391.21 256.00 C 378.03 242.72 364.69 229.59 351.55 216.26 C 351.63 197.64 351.57 179.02 351.58 160.41 C 332.97 160.42 314.36 160.35 295.74 160.44 C 282.41 147.31 269.28 133.98 256.00 120.80 C 242.74 133.98 229.58 147.26 216.30 160.42 Z" />
</g>
</svg>
