<?xml version="1.0" encoding="UTF-8" ?>
<!DOCTYPE svg PUBLIC "-//W3C//DTD SVG 1.1//EN" "http://www.w3.org/Graphics/SVG/1.1/DTD/svg11.dtd">
<svg width="512pt" height="512pt" viewBox="0 0 512 512" version="1.1" xmlns="http://www.w3.org/2000/svg">
<g id="#8d8d8dff">
<path fill="#8d8d8d" opacity="1.00" d=" M 228.82 14.61 C 241.48 7.05 257.35 5.11 271.45 9.42 C 285.78 13.62 297.90 24.28 304.19 37.79 C 307.53 44.41 308.64 51.77 309.44 59.06 C 334.46 70.38 355.34 90.46 367.95 114.84 C 375.54 129.46 380.13 145.63 381.50 162.05 C 388.21 230.43 394.70 298.84 401.52 367.22 C 424.27 367.99 445.20 384.35 451.83 406.05 C 454.63 413.71 453.93 421.98 454.00 429.99 C 453.96 434.02 454.07 438.05 453.99 442.09 C 454.17 448.22 447.84 452.97 442.02 452.51 C 408.18 452.47 374.34 452.54 340.50 452.47 C 331.56 469.70 317.37 484.21 300.13 493.17 C 282.16 502.77 261.05 506.02 240.96 502.88 C 211.50 498.39 184.99 478.98 171.48 452.47 C 138.65 452.55 105.83 452.46 73.00 452.52 C 69.93 452.47 66.64 452.82 63.87 451.21 C 60.93 449.57 58.22 446.69 58.07 443.16 C 57.87 436.78 58.07 430.38 57.99 423.99 C 57.62 410.69 63.17 397.73 71.70 387.70 C 81.31 376.21 95.57 368.92 110.44 367.42 C 117.21 299.29 123.73 231.12 130.45 162.99 C 132.28 137.86 141.97 113.41 157.82 93.83 C 169.85 79.12 185.15 66.86 202.56 59.13 C 203.52 55.53 203.25 51.73 204.24 48.14 C 207.53 34.29 216.53 21.84 228.82 14.61 M 248.20 30.37 C 238.40 32.96 230.25 40.85 227.38 50.58 C 246.11 46.18 265.90 46.20 284.63 50.57 C 280.44 35.52 263.21 25.84 248.20 30.37 M 195.19 90.24 C 177.00 103.58 163.26 123.00 157.29 144.80 C 153.76 156.89 153.45 169.57 152.04 182.01 C 145.64 247.61 139.25 313.22 132.91 378.82 C 132.78 382.93 130.72 386.99 127.06 389.02 C 123.76 391.14 119.69 390.50 115.98 390.63 C 104.39 390.70 92.93 396.83 86.67 406.62 C 82.25 413.21 80.58 421.27 80.86 429.12 C 197.61 429.13 314.35 429.12 431.10 429.12 C 431.29 422.57 431.14 415.77 428.33 409.72 C 424.36 400.48 415.78 393.52 406.01 391.28 C 400.43 389.80 394.62 390.82 388.95 390.28 C 383.51 389.49 379.16 384.44 379.19 378.93 C 372.05 306.31 365.08 233.66 357.93 161.03 C 355.43 138.75 345.33 117.41 329.54 101.48 C 311.72 83.00 286.54 72.13 260.97 70.92 C 237.73 69.77 214.04 76.52 195.19 90.24 M 198.92 452.55 C 205.16 460.16 212.55 466.90 221.21 471.65 C 237.91 481.08 258.46 483.19 276.79 477.61 C 291.19 473.41 303.77 464.19 313.10 452.55 C 275.05 452.34 236.98 452.33 198.92 452.55 Z" />
</g>
</svg>
