<?xml version="1.0" encoding="UTF-8" ?>
<!DOCTYPE svg PUBLIC "-//W3C//DTD SVG 1.1//EN" "http://www.w3.org/Graphics/SVG/1.1/DTD/svg11.dtd">
<svg width="512pt" height="512pt" viewBox="0 0 512 512" version="1.1" xmlns="http://www.w3.org/2000/svg">
<g id="#fe2d02ff">
<path fill="#fe2d02" opacity="1.00" d=" M 232.98 12.26 C 263.01 7.38 294.90 11.57 321.78 26.16 C 343.83 37.97 361.30 57.34 372.17 79.75 C 380.82 97.33 385.78 116.58 387.88 136.02 C 389.64 150.78 389.15 165.66 389.23 180.49 C 370.28 180.54 351.32 180.48 332.37 180.52 C 332.28 165.30 333.10 149.97 330.53 134.89 C 327.51 115.14 319.89 94.95 304.28 81.73 C 291.35 70.55 273.70 66.84 257.00 67.11 C 240.52 66.78 223.20 70.48 210.29 81.27 C 194.64 94.05 186.50 113.76 183.21 133.27 C 180.32 148.83 181.26 164.71 181.12 180.44 C 162.17 180.60 143.21 180.46 124.25 180.51 C 124.47 165.98 123.76 151.38 125.41 136.90 C 128.27 107.46 137.97 77.99 156.94 54.93 C 175.73 31.77 203.71 16.96 232.98 12.26 Z" />
<path fill="#fe2d02" opacity="1.00" d=" M 120.39 199.52 C 206.58 199.27 292.78 199.48 378.97 199.41 C 386.27 199.51 393.67 198.93 400.85 200.61 C 420.42 204.55 437.19 219.68 443.17 238.72 C 445.39 245.22 446.03 252.12 445.88 258.96 C 445.86 320.98 445.88 383.01 445.87 445.03 C 445.96 452.52 444.46 459.99 441.60 466.90 C 433.33 487.37 412.21 501.91 390.06 501.85 C 307.04 501.90 224.01 501.85 140.99 501.87 C 129.55 501.60 117.73 503.04 106.71 499.13 C 84.11 492.12 67.46 469.65 67.53 445.95 C 67.48 387.32 67.52 328.69 67.51 270.06 C 67.61 259.68 66.69 249.00 70.16 239.01 C 76.77 217.21 97.64 200.81 120.39 199.52 M 240.64 297.51 C 226.21 304.01 217.00 320.35 219.14 336.07 C 220.30 347.80 227.71 358.35 237.76 364.28 C 237.77 378.86 237.72 393.43 237.78 408.01 C 237.95 417.63 246.41 426.08 256.01 426.33 C 265.78 426.85 275.04 418.69 275.57 408.88 C 275.72 394.00 275.53 379.12 275.66 364.25 C 288.87 356.82 296.69 340.99 294.14 325.99 C 292.26 313.12 283.19 301.62 271.13 296.77 C 261.46 292.74 250.10 292.98 240.64 297.51 Z" />
</g>
</svg>
