<?xml version="1.0" encoding="UTF-8" ?>
<!DOCTYPE svg PUBLIC "-//W3C//DTD SVG 1.1//EN" "http://www.w3.org/Graphics/SVG/1.1/DTD/svg11.dtd">
<svg width="512pt" height="512pt" viewBox="0 0 512 512" version="1.1" xmlns="http://www.w3.org/2000/svg">
<g id="#ffffffff">
<path fill="#ffffff" opacity="1.00" d=" M 231.14 12.58 C 260.53 7.41 291.81 10.96 318.57 24.48 C 339.80 35.04 357.29 52.45 368.70 73.16 C 381.78 96.50 387.81 123.26 388.92 149.84 C 389.53 160.04 389.06 170.28 389.24 180.49 C 370.29 180.55 351.34 180.45 332.39 180.54 C 332.19 168.38 332.92 156.16 331.67 144.03 C 329.68 122.77 323.37 100.62 307.95 85.09 C 296.78 73.60 280.75 68.12 265.00 67.32 C 248.34 66.33 230.64 67.87 216.21 77.01 C 199.86 87.24 189.86 105.14 185.31 123.49 C 180.22 142.03 181.12 161.39 181.14 180.42 C 162.19 180.66 143.24 180.39 124.30 180.55 C 124.35 169.37 124.08 158.19 124.60 147.02 C 126.26 115.33 135.05 83.10 154.72 57.71 C 173.14 33.53 201.37 17.74 231.14 12.58 Z" />
<path fill="#ffffff" opacity="1.00" d=" M 116.65 199.89 C 120.73 199.29 124.86 199.42 128.98 199.41 C 213.33 199.41 297.68 199.41 382.03 199.41 C 387.97 199.45 393.99 199.13 399.84 200.42 C 416.55 203.48 431.46 214.63 439.34 229.65 C 443.62 237.72 445.94 246.83 445.87 255.98 C 445.88 314.98 445.87 373.99 445.87 432.99 C 445.77 442.40 446.57 452.05 443.62 461.16 C 437.12 484.48 414.24 502.02 389.97 501.85 C 306.64 501.90 223.32 501.86 139.99 501.87 C 128.62 501.67 116.85 502.96 105.95 498.87 C 83.69 491.62 67.44 469.32 67.53 445.88 C 67.48 382.90 67.52 319.92 67.51 256.95 C 67.28 243.48 72.08 230.02 80.76 219.73 C 89.70 208.95 102.78 201.77 116.65 199.89 M 242.81 296.57 C 227.23 302.44 216.87 319.51 219.14 336.04 C 220.29 347.74 227.65 358.35 237.74 364.21 C 237.81 378.82 237.71 393.42 237.78 408.03 C 237.95 417.97 247.00 426.62 256.93 426.34 C 266.39 426.35 275.03 418.36 275.57 408.89 C 275.72 393.99 275.51 379.09 275.67 364.20 C 287.96 357.31 295.65 343.13 294.48 329.06 C 293.72 317.07 286.77 305.77 276.55 299.52 C 266.59 293.33 253.69 292.17 242.81 296.57 Z" />
</g>
</svg>
