<?xml version="1.0" encoding="UTF-8" ?>
<!DOCTYPE svg PUBLIC "-//W3C//DTD SVG 1.1//EN" "http://www.w3.org/Graphics/SVG/1.1/DTD/svg11.dtd">
<svg width="453pt" height="571pt" viewBox="0 0 453 571" version="1.1" xmlns="http://www.w3.org/2000/svg">
<g id="#303030ff">
<path fill="#303030" opacity="1.00" d=" M 221.27 1.20 C 226.04 0.05 231.46 0.49 235.46 3.57 C 240.19 6.80 241.67 12.66 244.81 17.16 C 260.92 42.25 284.18 62.08 309.65 77.23 C 348.04 99.91 392.03 111.63 436.13 116.27 C 444.83 117.24 452.08 125.23 452.04 134.00 C 452.02 179.66 452.04 225.32 452.03 270.98 C 451.90 279.30 452.41 287.66 451.47 295.95 C 449.18 333.55 436.27 369.95 417.22 402.25 C 397.19 436.28 370.75 466.16 341.59 492.63 C 309.50 521.39 274.16 546.57 236.40 567.34 C 231.16 570.69 224.14 571.26 218.61 568.31 C 211.61 564.79 204.83 560.85 198.10 556.85 C 164.80 536.82 133.45 513.49 104.99 487.02 C 76.34 460.21 50.61 429.85 31.56 395.42 C 15.25 366.12 4.31 333.61 1.40 300.12 C 0.22 284.11 0.76 268.02 0.63 251.98 C 0.65 212.00 0.59 172.03 0.66 132.06 C 0.54 125.47 5.23 119.29 11.40 117.20 C 14.84 116.09 18.49 116.06 22.04 115.56 C 50.69 112.12 79.08 105.59 105.93 94.90 C 139.57 81.50 171.06 61.32 194.74 33.67 C 201.11 26.16 206.95 18.15 211.52 9.41 C 213.52 5.52 217.07 2.46 221.27 1.20 M 201.97 142.16 C 183.86 147.53 167.86 159.63 157.78 175.61 C 141.29 200.94 141.31 235.84 158.15 261.00 C 168.68 277.19 185.28 289.50 204.03 294.36 C 204.36 343.93 204.00 393.51 204.20 443.08 C 204.52 452.08 211.21 460.29 219.93 462.50 C 225.37 463.65 231.36 463.23 236.18 460.26 C 242.61 456.63 246.52 449.35 246.61 442.04 C 246.67 434.48 246.60 426.92 246.63 419.35 C 255.73 419.22 264.84 419.52 273.93 419.21 C 283.23 418.83 291.50 411.25 292.97 402.11 C 293.65 397.61 293.28 392.82 291.18 388.72 C 287.71 381.60 279.94 376.82 272.01 377.02 C 263.12 377.03 254.23 377.05 245.34 377.02 C 245.35 349.52 245.30 322.02 245.36 294.52 C 269.30 288.16 289.74 269.98 298.72 246.88 C 308.58 222.16 304.74 192.57 288.80 171.23 C 276.35 154.18 256.88 142.44 235.94 139.61 C 224.61 138.23 212.93 138.79 201.97 142.16 Z" />
<path fill="#303030" opacity="1.00" d=" M 217.39 181.53 C 232.90 177.76 250.20 184.96 258.24 198.78 C 265.18 210.08 265.39 225.13 258.79 236.63 C 251.30 250.42 234.40 258.45 219.00 255.15 C 206.24 252.91 195.11 243.48 190.70 231.31 C 185.58 217.82 189.04 201.55 199.45 191.51 C 204.35 186.59 210.65 183.13 217.39 181.53 Z" />
</g>
</svg>
