<?xml version="1.0" encoding="UTF-8" ?>
<!DOCTYPE svg PUBLIC "-//W3C//DTD SVG 1.1//EN" "http://www.w3.org/Graphics/SVG/1.1/DTD/svg11.dtd">
<svg width="700pt" height="700pt" viewBox="0 0 700 700" version="1.1" xmlns="http://www.w3.org/2000/svg">
<g id="#7b9aa9c4">
<path fill="#7b9aa9" opacity="0.77" d=" M 0.00 46.64 C 2.51 38.87 9.41 32.05 17.94 31.98 C 239.64 32.05 461.34 31.95 683.03 32.02 C 691.17 32.57 697.52 39.17 700.00 46.61 L 700.00 671.50 C 698.54 677.32 694.78 682.68 689.26 685.25 C 684.24 687.89 678.43 686.84 673.00 687.01 C 454.65 687.01 236.29 686.97 17.94 687.02 C 9.22 686.91 1.87 679.79 0.00 671.52 L 0.00 46.64 M 16.31 33.35 C 10.41 34.21 5.29 38.39 2.73 43.69 C 0.36 49.13 0.91 55.22 1.01 61.00 C 1.02 258.66 1.01 456.33 1.01 654.00 C 1.21 660.33 0.20 666.82 1.90 673.03 C 4.14 680.73 11.93 686.25 19.93 685.96 C 239.64 686.02 459.34 685.97 679.04 685.98 C 685.32 686.31 691.70 683.60 695.39 678.42 C 699.88 672.63 699.10 664.87 698.99 658.00 C 698.99 459.00 698.98 260.00 698.99 61.00 C 699.09 54.13 699.89 46.37 695.39 40.58 C 691.69 35.41 685.32 32.69 679.04 33.01 C 459.68 33.01 240.32 33.01 20.96 33.02 C 19.41 33.04 17.84 33.09 16.31 33.35 Z" />
</g>
<g id="#303030ff">
<path fill="#303030" opacity="1.00" d=" M 16.31 33.35 C 17.84 33.09 19.41 33.04 20.96 33.02 C 240.32 33.01 459.68 33.01 679.04 33.01 C 685.32 32.69 691.69 35.41 695.39 40.58 C 699.89 46.37 699.09 54.13 698.99 61.00 C 698.98 260.00 698.99 459.00 698.99 658.00 C 699.10 664.87 699.88 672.63 695.39 678.42 C 691.70 683.60 685.32 686.31 679.04 685.98 C 459.34 685.97 239.64 686.02 19.93 685.96 C 11.93 686.25 4.14 680.73 1.90 673.03 C 0.20 666.82 1.21 660.33 1.01 654.00 C 1.01 456.33 1.02 258.66 1.01 61.00 C 0.91 55.22 0.36 49.13 2.73 43.69 C 5.29 38.39 10.41 34.21 16.31 33.35 M 162.74 184.72 C 159.01 187.38 156.76 191.48 154.08 195.09 C 125.61 234.95 97.16 274.82 68.65 314.66 C 65.67 318.78 64.08 323.90 64.51 329.00 C 65.20 339.19 74.87 347.68 85.03 347.39 C 101.68 347.34 118.33 347.51 134.98 347.30 C 139.17 407.19 142.21 467.17 146.17 527.08 C 146.82 533.09 149.63 538.82 153.90 543.10 C 162.34 551.94 176.57 553.89 187.37 548.41 C 195.95 544.26 201.73 535.22 202.37 525.76 C 205.92 466.27 209.57 406.77 213.26 347.29 C 228.17 347.54 243.09 347.30 258.00 347.41 C 261.87 347.38 265.87 347.65 269.60 346.38 C 277.33 343.79 283.05 336.18 283.32 328.02 C 283.70 323.01 281.83 318.11 278.80 314.18 C 249.15 272.48 219.61 230.71 189.95 189.02 C 184.03 180.50 171.02 178.71 162.74 184.72 M 347.36 181.46 C 340.44 182.44 334.90 188.93 335.02 195.92 C 334.99 212.97 334.98 230.03 335.02 247.08 C 334.96 254.95 342.12 261.87 349.97 261.62 C 437.64 261.63 525.32 261.62 613.00 261.63 C 617.88 261.53 623.24 262.35 627.60 259.59 C 632.37 256.93 635.17 251.47 635.00 246.06 C 635.01 229.69 634.99 213.32 635.01 196.95 C 635.65 188.64 628.37 180.95 620.04 181.23 C 532.36 181.19 444.68 181.23 357.00 181.21 C 353.79 181.23 350.55 181.03 347.36 181.46 M 345.37 326.51 C 339.24 328.35 334.78 334.51 335.00 340.93 C 335.00 357.64 334.98 374.36 335.01 391.07 C 334.90 396.47 337.86 401.81 342.66 404.36 C 346.69 406.71 351.53 406.17 356.00 406.23 C 444.01 406.18 532.02 406.27 620.03 406.19 C 628.12 406.48 635.36 399.16 635.00 391.07 C 634.97 374.01 635.07 356.95 634.95 339.90 C 634.80 332.20 627.70 325.58 620.03 325.83 C 530.69 325.73 441.35 325.84 352.02 325.78 C 349.78 325.82 347.52 325.86 345.37 326.51 M 347.41 470.61 C 340.57 471.59 335.01 477.99 335.03 484.92 C 334.98 501.97 334.99 519.02 335.02 536.08 C 334.82 544.03 341.99 551.07 349.92 550.80 C 439.97 550.81 530.03 550.81 620.08 550.80 C 625.69 550.89 631.17 547.51 633.53 542.41 C 635.00 539.51 635.04 536.17 635.03 533.00 C 634.93 516.98 635.08 500.95 634.96 484.93 C 634.99 477.07 627.89 470.15 620.03 470.40 C 541.69 470.38 463.34 470.39 385.00 470.39 C 372.47 470.55 359.92 470.07 347.41 470.61 Z" />
</g>
</svg>
