<?xml version="1.0" encoding="UTF-8" ?>
<!DOCTYPE svg PUBLIC "-//W3C//DTD SVG 1.1//EN" "http://www.w3.org/Graphics/SVG/1.1/DTD/svg11.dtd">
<svg width="512pt" height="512pt" viewBox="0 0 512 512" version="1.1" xmlns="http://www.w3.org/2000/svg">
<g id="#ffffffff">
<path fill="#ffffff" opacity="1.00" d=" M 234.43 17.41 C 236.28 17.11 238.08 16.53 239.97 16.47 C 250.31 16.09 260.66 16.12 271.00 16.41 C 291.24 18.65 311.10 24.95 328.77 35.12 C 357.51 51.52 380.35 78.01 392.29 108.88 C 397.87 123.61 401.70 139.21 401.77 155.01 C 403.36 161.85 401.45 168.73 401.55 175.61 C 399.65 197.10 392.48 218.04 381.51 236.59 C 366.59 261.15 344.39 281.23 318.46 293.59 C 296.29 304.11 271.51 308.96 247.01 307.37 C 222.17 305.91 197.69 297.82 176.83 284.23 C 152.04 268.16 132.00 244.66 120.82 217.27 C 116.37 206.06 112.69 194.44 111.33 182.42 C 109.96 177.04 110.78 171.43 109.77 166.00 C 109.02 159.62 110.83 153.33 110.47 146.93 C 113.80 115.03 127.83 84.25 150.13 61.12 C 172.32 37.76 202.47 21.86 234.43 17.41 Z" />
<path fill="#ffffff" opacity="1.00" d=" M 135.48 281.50 C 135.83 281.44 136.51 281.32 136.85 281.26 C 142.44 285.15 146.87 290.57 152.49 294.47 C 181.39 316.99 217.81 330.04 254.53 329.79 C 297.44 330.79 340.22 313.76 371.32 284.31 C 372.90 283.27 374.32 280.50 376.52 281.50 C 403.66 296.00 428.20 315.38 448.62 338.39 C 475.71 369.00 495.56 406.04 505.53 445.71 C 508.10 456.02 509.98 466.50 511.56 477.00 C 512.35 486.64 504.06 494.84 495.08 496.69 C 491.40 497.14 487.69 496.97 484.00 497.00 C 332.00 497.00 180.00 497.00 28.00 497.00 C 24.01 496.96 19.98 497.20 16.03 496.55 C 9.88 494.70 4.11 490.60 1.67 484.48 C -1.23 478.18 1.71 471.39 2.44 464.95 C 7.70 433.69 19.07 403.51 35.45 376.39 C 59.41 336.50 94.42 303.37 135.48 281.50 Z" />
</g>
</svg>
