<?xml version="1.0" encoding="UTF-8" ?>
<!DOCTYPE svg PUBLIC "-//W3C//DTD SVG 1.1//EN" "http://www.w3.org/Graphics/SVG/1.1/DTD/svg11.dtd">
<svg width="571pt" height="583pt" viewBox="0 0 571 583" version="1.1" xmlns="http://www.w3.org/2000/svg">
<g id="#303030ff">
<path fill="#303030" opacity="1.00" d=" M 161.59 20.99 C 165.95 6.98 181.62 -2.21 195.98 0.78 C 206.82 2.59 215.70 11.44 218.52 21.93 C 232.05 22.11 245.57 21.89 259.10 22.03 C 263.60 22.17 267.12 26.48 266.81 30.90 C 266.83 45.28 266.84 59.67 266.81 74.05 C 267.07 78.82 262.85 83.06 258.05 82.65 C 212.71 82.69 167.36 82.65 122.01 82.67 C 119.48 82.77 116.73 82.12 115.13 80.00 C 112.58 77.29 113.51 73.38 113.45 70.04 C 113.47 56.67 113.43 43.30 113.47 29.93 C 112.94 25.13 117.16 20.88 121.91 21.02 C 135.13 20.97 148.36 21.03 161.59 20.99 Z" />
<path fill="#303030" opacity="1.00" d=" M 286.01 50.14 C 302.99 50.14 319.98 50.15 336.96 50.14 C 342.71 50.08 348.58 50.02 354.14 51.71 C 368.08 55.74 378.54 69.40 378.48 83.96 C 378.66 145.79 378.33 207.62 378.64 269.44 C 372.14 266.20 364.50 263.93 357.35 266.36 C 351.16 268.02 345.98 272.08 341.80 276.81 C 333.81 285.14 325.81 293.46 317.78 301.76 C 311.22 308.69 308.95 319.21 311.82 328.29 C 313.43 334.00 317.68 338.28 321.23 342.84 C 320.37 344.57 319.51 346.30 318.67 348.04 C 311.79 347.64 304.51 348.51 298.87 352.81 C 292.12 357.64 287.70 365.69 287.71 374.05 C 287.58 385.01 287.72 395.98 287.66 406.94 C 287.66 410.91 287.52 414.93 288.35 418.84 C 289.92 425.47 294.26 431.32 299.96 435.01 C 305.34 438.69 311.99 439.57 318.37 439.35 C 318.98 441.18 319.58 443.02 320.22 444.85 C 316.84 448.96 313.00 452.95 311.27 458.10 C 308.62 465.67 309.36 474.49 313.61 481.35 C 315.44 484.44 318.06 486.94 320.58 489.46 C 328.95 497.75 337.22 506.14 345.60 514.42 C 350.50 519.27 357.17 522.02 363.95 522.86 C 369.44 523.52 374.67 521.20 379.40 518.68 C 379.37 528.46 379.42 538.24 379.38 548.02 C 379.91 563.50 368.39 578.12 353.38 581.63 C 348.35 582.83 343.15 582.68 338.03 582.67 C 237.01 582.63 135.99 582.72 34.97 582.63 C 17.45 583.00 1.34 567.93 0.83 550.37 C 1.23 524.91 0.88 499.43 1.00 473.96 C 1.00 347.31 1.00 220.65 1.00 94.00 C 1.00 90.50 1.10 87.01 0.83 83.52 C 1.25 71.70 8.62 60.58 19.05 55.13 C 24.53 52.19 30.82 51.03 37.00 50.99 C 56.01 51.01 75.01 50.99 94.02 51.01 C 94.08 59.03 93.95 67.05 94.07 75.07 C 94.41 88.48 106.53 100.40 120.02 100.11 C 166.67 100.18 213.33 100.15 259.97 100.12 C 273.49 100.51 285.91 88.50 286.00 74.99 C 286.02 66.71 285.97 58.43 286.01 50.14 M 96.48 137.53 C 86.91 147.05 77.50 156.74 67.77 166.10 C 65.24 161.71 62.86 157.23 60.19 152.93 C 58.06 149.61 53.79 147.93 49.98 148.99 C 44.45 150.37 40.98 157.13 43.73 162.31 C 48.17 170.16 52.72 177.97 57.24 185.78 C 60.34 191.15 68.58 192.45 72.94 187.88 C 84.46 176.41 95.92 164.88 107.43 153.40 C 109.08 151.72 110.88 150.15 112.20 148.19 C 115.27 142.93 112.13 134.80 105.90 133.77 C 102.29 132.84 98.79 134.89 96.48 137.53 M 128.36 161.45 C 124.99 162.95 122.33 166.27 122.12 170.01 C 122.03 175.15 126.79 179.69 131.94 179.29 C 197.26 179.33 262.59 179.31 327.91 179.30 C 331.95 179.63 335.92 177.16 337.40 173.39 C 339.78 167.91 334.93 161.00 329.08 161.00 C 263.72 160.98 198.36 161.04 133.00 160.98 C 131.46 161.06 129.81 160.81 128.36 161.45 M 97.39 219.32 C 87.53 229.15 77.73 239.04 67.84 248.84 C 65.24 244.19 62.96 239.37 60.22 234.80 C 57.66 230.76 51.85 229.04 47.73 231.76 C 43.41 234.10 41.43 239.88 43.80 244.27 C 48.25 252.08 52.76 259.87 57.28 267.64 C 60.32 272.90 68.41 274.19 72.76 269.85 C 85.15 257.54 97.45 245.15 109.83 232.83 C 111.47 231.24 113.00 229.34 113.27 226.97 C 114.14 222.42 110.87 217.79 106.51 216.58 C 103.26 215.44 99.70 216.99 97.39 219.32 M 130.41 244.53 C 124.88 245.01 120.62 251.21 122.59 256.50 C 123.78 260.45 127.84 263.24 131.95 262.97 C 197.30 262.96 262.65 262.96 328.00 262.98 C 332.68 263.39 337.27 259.76 337.92 255.11 C 338.80 249.15 332.88 243.75 327.06 244.37 C 261.51 244.50 195.95 244.20 130.41 244.53 M 98.38 300.26 C 88.10 310.29 78.11 320.63 67.82 330.65 C 65.40 326.22 63.13 321.70 60.65 317.31 C 58.36 313.12 52.65 310.71 48.32 313.26 C 43.59 315.37 41.29 321.56 43.82 326.16 C 48.17 333.79 52.62 341.37 56.98 349.00 C 58.77 352.27 62.08 355.17 66.01 354.99 C 68.87 355.05 71.33 353.25 73.23 351.29 C 85.70 338.74 98.27 326.28 110.73 313.72 C 114.39 310.30 114.23 303.87 110.38 300.65 C 107.24 297.40 101.71 297.19 98.38 300.26 M 129.34 327.38 C 124.01 328.54 120.47 335.01 122.90 340.03 C 124.62 344.38 129.61 346.27 134.01 345.80 C 182.69 345.74 231.37 345.81 280.04 345.77 C 285.30 345.99 290.20 341.29 289.85 335.98 C 289.26 331.26 284.91 327.05 280.07 327.13 C 231.05 327.11 182.03 327.16 133.01 327.11 C 131.78 327.07 130.55 327.16 129.34 327.38 M 98.28 382.21 C 88.05 392.21 78.08 402.50 67.84 412.50 C 65.40 408.12 63.24 403.60 60.72 399.28 C 57.73 394.57 50.51 393.47 46.34 397.25 C 42.61 400.07 41.70 405.73 44.23 409.63 C 48.67 417.26 53.04 424.93 57.48 432.56 C 59.37 435.78 63.08 438.20 66.90 437.69 C 70.10 437.19 72.51 434.87 74.65 432.63 C 86.62 420.57 98.71 408.63 110.66 396.56 C 114.51 392.73 114.29 385.65 110.08 382.17 C 106.90 379.19 101.42 379.14 98.28 382.21 M 128.21 411.25 C 125.41 412.13 123.21 414.53 122.48 417.36 C 120.65 423.18 126.05 429.66 132.06 429.29 C 174.02 429.32 215.99 429.31 257.96 429.30 C 262.46 429.60 266.51 426.20 267.76 422.01 C 269.21 416.73 264.58 410.73 259.08 411.00 C 218.05 411.00 177.02 411.00 136.00 411.00 C 133.40 411.05 130.77 410.77 128.21 411.25 M 97.59 464.66 C 87.67 474.53 77.81 484.46 67.88 494.33 C 65.34 490.12 63.03 485.77 60.50 481.57 C 58.75 478.65 55.41 476.56 51.93 476.95 C 45.52 476.87 40.64 484.61 43.66 490.36 C 48.07 498.22 52.67 505.98 57.14 513.81 C 58.59 516.48 61.03 518.73 64.09 519.32 C 67.41 520.20 70.78 518.41 73.01 516.04 C 85.50 503.52 98.03 491.04 110.51 478.51 C 114.12 475.24 114.20 469.44 111.46 465.61 C 108.58 460.92 101.13 460.52 97.59 464.66 M 127.39 494.44 C 125.26 495.54 123.55 497.46 122.72 499.72 C 120.31 505.45 125.89 512.39 131.90 512.00 C 163.59 511.99 195.28 511.98 226.97 512.01 C 232.72 512.56 238.18 506.63 236.86 500.92 C 235.62 496.70 231.53 493.28 227.00 493.53 C 195.66 493.50 164.32 493.54 132.98 493.51 C 131.09 493.54 129.13 493.63 127.39 494.44 Z" />
<path fill="#303030" opacity="1.00" d=" M 412.13 267.15 C 413.34 264.02 416.64 261.88 419.99 261.99 C 432.68 262.01 445.38 261.95 458.07 262.02 C 462.22 262.11 465.73 265.77 465.92 269.88 C 466.18 276.10 466.10 282.35 466.93 288.53 C 476.06 291.07 484.86 294.78 493.19 299.31 C 498.24 294.96 502.96 290.25 507.90 285.79 C 510.67 283.14 515.32 283.32 517.98 286.04 C 527.24 295.09 536.34 304.33 545.51 313.47 C 549.79 317.50 547.85 324.37 543.75 327.75 C 540.11 331.48 536.61 335.35 533.07 339.17 C 537.81 347.58 541.19 356.66 544.19 365.81 C 551.15 365.94 558.13 366.16 565.04 367.04 C 568.33 368.18 570.63 371.56 570.27 375.07 C 570.27 387.71 570.33 400.35 570.25 412.99 C 570.52 417.45 566.29 420.94 562.05 420.97 C 556.06 421.08 550.07 421.24 544.11 421.83 C 541.22 431.01 537.57 439.95 533.08 448.47 C 537.63 453.05 542.00 457.82 546.36 462.59 C 549.26 465.38 549.12 470.41 546.25 473.18 C 537.31 482.26 528.23 491.22 519.23 500.26 C 516.21 503.25 511.17 503.88 507.70 501.30 C 502.70 497.26 498.32 492.50 493.48 488.28 C 492.40 488.26 491.50 489.10 490.54 489.49 C 483.01 493.54 474.94 496.45 466.83 499.10 C 466.23 505.07 466.08 511.06 465.97 517.05 C 465.94 521.28 462.46 525.52 458.01 525.25 C 445.35 525.33 432.68 525.28 420.02 525.27 C 416.52 525.61 413.15 523.29 412.03 520.01 C 411.16 513.11 410.94 506.14 410.81 499.19 C 401.66 496.19 392.58 492.81 384.17 488.07 C 379.22 492.52 374.49 497.19 369.55 501.64 C 366.60 504.35 361.65 503.98 359.01 501.02 C 349.97 492.07 341.01 483.03 332.01 474.04 C 328.81 471.15 328.97 465.76 331.34 462.41 C 335.21 457.57 339.52 453.09 343.40 448.25 C 338.91 439.86 335.18 431.05 332.58 421.89 C 326.37 421.13 320.11 421.16 313.87 420.91 C 309.38 420.69 305.78 416.52 306.00 412.08 C 306.00 399.71 305.98 387.34 306.02 374.97 C 306.05 371.39 308.43 367.65 312.08 366.94 C 318.85 366.13 325.67 366.00 332.47 365.74 C 335.18 356.52 338.85 347.60 343.41 339.14 C 339.24 334.14 334.83 329.33 330.68 324.32 C 328.94 322.40 328.39 319.59 329.29 317.17 C 330.40 314.54 332.75 312.77 334.70 310.80 C 343.15 302.54 351.77 294.46 360.17 286.17 C 362.80 283.68 367.30 283.68 369.93 286.18 C 374.73 290.46 379.35 294.95 384.07 299.32 C 392.55 294.88 401.38 291.02 410.64 288.49 C 411.20 281.39 410.98 274.20 412.13 267.15 M 427.37 345.54 C 407.57 349.48 391.39 366.84 389.04 386.91 C 386.92 401.61 391.78 417.20 402.21 427.84 C 411.59 437.80 425.34 443.36 439.00 442.97 C 453.37 442.71 467.50 435.79 476.38 424.46 C 483.41 415.66 487.31 404.35 487.01 393.07 C 487.08 377.36 478.82 362.01 465.90 353.16 C 454.84 345.42 440.53 342.72 427.37 345.54 Z" />
</g>
<g id="#0a0a0a38">
<path fill="#0a0a0a" opacity="0.22" d=" M 0.00 82.25 L 0.83 83.52 C 1.10 87.01 1.00 90.50 1.00 94.00 C 1.00 220.65 1.00 347.31 1.00 473.96 C 0.88 499.43 1.23 524.91 0.83 550.37 L 0.00 551.59 L 0.00 82.25 Z" />
</g>
</svg>
