<?xml version="1.0" encoding="UTF-8" ?>
<!DOCTYPE svg PUBLIC "-//W3C//DTD SVG 1.1//EN" "http://www.w3.org/Graphics/SVG/1.1/DTD/svg11.dtd">
<svg width="418pt" height="548pt" viewBox="0 0 418 548" version="1.1" xmlns="http://www.w3.org/2000/svg">
<g id="#1111115e">
<path fill="#111111" opacity="0.37" d=" M 64.76 0.00 L 269.16 0.00 L 270.31 0.56 C 267.87 0.78 265.43 0.99 262.99 1.02 C 202.33 0.96 141.66 1.01 81.00 0.99 C 75.21 0.95 69.41 1.18 63.63 0.77 L 64.76 0.00 Z" />
</g>
<g id="#303030ff">
<path fill="#303030" opacity="1.00" d=" M 20.73 20.73 C 32.12 9.33 47.57 2.10 63.63 0.77 C 69.41 1.18 75.21 0.95 81.00 0.99 C 141.66 1.01 202.33 0.96 262.99 1.02 C 265.43 0.99 267.87 0.78 270.31 0.56 C 273.66 2.02 276.81 4.00 279.30 6.71 C 321.92 50.41 364.69 93.98 407.33 137.66 C 411.17 141.59 415.60 145.28 417.50 150.62 C 416.68 157.05 417.06 163.54 417.01 170.00 C 417.01 269.66 417.02 369.33 417.01 469.00 C 417.06 473.92 416.69 478.87 417.34 483.77 C 416.19 501.51 407.43 518.46 394.13 530.16 C 382.80 540.03 368.18 546.63 353.06 547.06 C 257.03 546.97 160.99 546.97 64.96 547.06 C 37.75 546.13 12.81 526.47 4.13 500.87 C 0.60 491.33 0.17 481.06 0.35 471.00 C 0.38 337.34 0.34 203.67 0.37 70.01 C 0.13 51.71 7.74 33.58 20.73 20.73 M 281.08 51.56 C 280.88 77.72 281.08 103.89 280.98 130.05 C 280.44 138.12 287.88 145.54 295.95 145.02 C 321.63 144.92 347.31 145.13 372.99 144.91 C 356.51 128.09 339.95 111.35 323.50 94.49 C 309.37 80.18 295.50 65.58 281.08 51.56 M 91.34 224.43 C 84.83 225.90 79.67 232.20 79.98 238.94 C 80.03 260.65 79.97 282.36 80.01 304.07 C 80.14 311.74 87.36 318.17 94.94 317.97 C 114.62 318.00 134.31 317.94 153.99 318.00 C 158.13 318.00 162.54 318.34 166.29 316.23 C 171.56 313.66 174.64 307.78 174.32 301.99 C 174.31 280.99 174.40 259.99 174.29 239.00 C 174.57 231.21 167.79 224.22 160.06 224.05 C 139.04 223.95 118.01 224.09 96.98 223.98 C 95.09 224.01 93.18 223.99 91.34 224.43 M 215.29 256.31 C 208.73 257.86 203.84 264.28 203.98 271.00 C 203.77 278.60 210.23 285.86 217.94 285.99 C 256.98 286.03 296.02 285.96 335.06 286.02 C 339.75 286.27 344.40 283.90 347.17 280.15 C 351.11 274.92 351.11 267.08 347.18 261.85 C 344.40 258.09 339.76 255.71 335.05 255.98 C 298.70 256.02 262.35 255.99 226.00 255.99 C 222.43 256.07 218.82 255.70 215.29 256.31 M 91.33 362.42 C 84.82 363.90 79.64 370.18 79.98 376.94 C 80.01 398.31 80.01 419.68 79.98 441.06 C 79.71 446.98 83.69 452.66 89.14 454.83 C 92.56 456.33 96.37 455.96 100.01 456.00 C 119.69 455.93 139.37 456.00 159.06 455.98 C 164.43 456.04 169.78 453.10 172.40 448.37 C 174.47 444.97 174.32 440.84 174.36 437.00 C 174.26 417.00 174.42 397.00 174.28 377.00 C 174.57 369.21 167.79 362.22 160.06 362.04 C 139.03 361.95 118.00 362.09 96.98 361.98 C 95.09 362.01 93.18 361.98 91.33 362.42 M 215.29 394.31 C 208.38 395.93 203.39 402.96 204.01 410.01 C 204.32 417.61 211.23 424.40 218.94 424.02 C 257.98 423.97 297.03 424.02 336.08 423.99 C 343.80 423.97 350.50 416.68 350.06 409.00 C 350.50 401.32 343.81 394.00 336.08 394.00 C 299.05 393.98 262.02 394.02 225.00 393.99 C 221.76 394.04 218.49 393.73 215.29 394.31 Z" />
</g>
<g id="#1e1e1ea2">
<path fill="#1e1e1e" opacity="0.64" d=" M 417.50 150.62 L 418.00 151.76 L 418.00 484.97 L 417.34 483.77 C 416.69 478.87 417.06 473.92 417.01 469.00 C 417.02 369.33 417.01 269.66 417.01 170.00 C 417.06 163.54 416.68 157.05 417.50 150.62 Z" />
</g>
<g id="#1111115a">
<path fill="#111111" opacity="0.35" d=" M 64.96 547.06 C 160.99 546.97 257.03 546.97 353.06 547.06 L 353.01 548.00 L 64.88 548.00 L 64.96 547.06 Z" />
</g>
</svg>
