<?xml version="1.0" encoding="UTF-8" ?>
<!DOCTYPE svg PUBLIC "-//W3C//DTD SVG 1.1//EN" "http://www.w3.org/Graphics/SVG/1.1/DTD/svg11.dtd">
<svg width="700pt" height="700pt" viewBox="0 0 700 700" version="1.1" xmlns="http://www.w3.org/2000/svg">
<g id="#303030ff">
<path fill="#303030" opacity="1.00" d=" M 338.34 7.21 C 361.95 4.40 386.51 9.67 406.66 22.36 C 420.76 31.21 432.87 43.39 441.27 57.80 C 447.14 67.29 451.23 77.77 454.47 88.42 C 456.02 95.90 458.35 103.25 458.60 110.93 C 460.19 117.84 459.58 124.97 459.96 132.00 C 459.53 139.08 460.15 146.25 458.66 153.23 C 458.03 164.67 455.26 175.82 452.78 186.96 C 444.49 216.58 431.33 245.50 410.29 268.30 C 398.93 280.54 384.91 290.75 368.76 295.51 C 360.77 298.02 352.27 298.53 343.97 297.66 C 338.86 297.89 334.18 295.60 329.27 294.56 C 314.28 289.08 301.25 279.17 290.45 267.55 C 267.62 242.04 253.64 209.66 246.39 176.46 C 245.72 171.84 244.35 167.35 243.62 162.74 C 242.83 152.17 241.31 141.63 241.55 131.00 C 241.56 104.01 247.67 76.37 262.71 53.64 C 276.25 33.08 297.14 17.32 320.92 10.69 C 326.50 8.53 332.45 7.93 338.34 7.21 Z" />
<path fill="#303030" opacity="1.00" d=" M 261.45 291.70 C 264.58 291.60 268.79 290.03 270.98 293.05 C 289.48 312.36 314.11 326.70 340.99 329.53 C 348.51 329.65 356.06 329.90 363.56 329.28 C 371.65 327.46 379.97 326.19 387.53 322.58 C 396.64 319.43 404.63 313.90 412.63 308.65 C 419.12 303.91 425.18 298.58 430.77 292.80 C 432.47 290.49 435.56 291.44 438.00 291.43 C 444.71 292.17 451.26 293.88 457.88 295.13 C 467.12 298.10 476.78 300.02 485.47 304.49 C 526.86 321.75 560.46 356.38 577.01 398.00 C 582.66 412.96 587.68 428.15 592.52 443.39 C 594.94 451.34 594.39 460.14 590.69 467.60 C 586.46 477.23 577.06 483.87 567.01 486.25 C 560.05 487.26 553.00 486.89 546.00 486.95 C 415.66 486.96 285.33 486.96 155.00 486.95 C 148.01 486.92 140.97 487.24 134.04 486.17 C 124.77 483.83 115.99 477.92 111.62 469.24 C 106.88 461.17 106.44 451.04 109.26 442.23 C 111.66 435.04 113.80 427.76 116.49 420.68 C 121.11 407.06 125.56 393.26 132.59 380.65 C 148.60 350.66 173.95 325.83 204.04 310.07 C 221.94 300.71 241.46 294.51 261.45 291.70 Z" />
<path fill="#303030" opacity="1.00" d=" M 60.30 533.34 C 62.83 532.81 65.44 533.04 68.01 533.00 C 111.36 533.01 154.72 533.00 198.08 533.00 C 204.53 532.42 210.56 538.47 210.00 544.92 C 209.99 589.64 209.99 634.36 210.00 679.08 C 210.57 685.52 204.53 691.58 198.08 691.00 C 153.36 690.99 108.64 690.99 63.92 691.00 C 57.47 691.57 51.46 685.52 52.01 679.08 C 52.01 634.37 52.00 589.65 52.01 544.94 C 51.70 539.76 55.32 534.73 60.30 533.34 Z" />
<path fill="#303030" opacity="1.00" d=" M 276.31 533.33 C 278.84 532.81 281.44 533.04 284.01 533.00 C 327.36 533.01 370.72 533.00 414.08 533.00 C 420.53 532.42 426.56 538.48 426.00 544.92 C 425.99 589.64 425.99 634.36 426.00 679.08 C 426.57 685.52 420.52 691.57 414.08 691.00 C 369.03 690.97 323.98 691.03 278.93 690.97 C 272.83 691.04 267.50 685.14 268.01 679.08 C 268.01 634.36 267.99 589.65 268.01 544.93 C 267.70 539.75 271.33 534.73 276.31 533.33 Z" />
<path fill="#303030" opacity="1.00" d=" M 491.30 533.34 C 493.83 532.81 496.43 533.04 499.01 533.00 C 542.36 533.01 585.72 533.00 629.08 533.00 C 635.54 532.42 641.57 538.48 641.00 544.93 C 640.99 589.64 640.99 634.36 641.00 679.08 C 641.56 685.52 635.52 691.58 629.08 691.00 C 584.36 690.99 539.64 690.99 494.93 691.00 C 488.46 691.58 482.46 685.52 483.01 679.08 C 483.01 634.37 482.99 589.65 483.01 544.94 C 482.70 539.76 486.32 534.73 491.30 533.34 Z" />
</g>
<g id="#9cc8defa">
<path fill="#9cc8de" opacity="0.98" d=" M 59.40 532.52 C 60.86 532.04 62.42 532.00 63.95 531.98 C 108.99 532.03 154.03 531.97 199.06 532.02 C 205.42 531.82 211.16 537.58 210.99 543.93 C 211.00 589.31 211.00 634.69 210.99 680.06 C 211.17 686.42 205.42 692.18 199.06 692.00 C 153.69 692.00 108.31 692.00 62.94 692.00 C 56.59 692.16 50.82 686.42 51.01 680.06 C 51.00 634.69 50.99 589.30 51.01 543.93 C 50.89 538.81 54.58 534.05 59.40 532.52 M 60.30 533.34 C 55.32 534.73 51.70 539.76 52.01 544.94 C 52.00 589.65 52.01 634.37 52.01 679.08 C 51.46 685.52 57.47 691.57 63.92 691.00 C 108.64 690.99 153.36 690.99 198.08 691.00 C 204.53 691.58 210.57 685.52 210.00 679.08 C 209.99 634.36 209.99 589.64 210.00 544.92 C 210.56 538.47 204.53 532.42 198.08 533.00 C 154.72 533.00 111.36 533.01 68.01 533.00 C 65.44 533.04 62.83 532.81 60.30 533.34 Z" />
<path fill="#9cc8de" opacity="0.98" d=" M 275.39 532.52 C 276.86 532.04 278.42 532.00 279.95 531.98 C 324.99 532.03 370.03 531.97 415.07 532.02 C 421.43 531.83 427.16 537.58 427.00 543.94 C 427.00 589.31 427.00 634.69 427.00 680.06 C 427.13 685.74 422.57 691.05 416.97 691.84 C 414.32 692.15 411.65 691.97 409.00 692.01 C 365.64 691.99 322.29 692.01 278.93 692.00 C 272.59 692.16 266.83 686.42 267.01 680.07 C 267.00 634.69 266.99 589.30 267.01 543.92 C 266.89 538.80 270.58 534.05 275.39 532.52 M 276.31 533.33 C 271.33 534.73 267.70 539.75 268.01 544.93 C 267.99 589.65 268.01 634.36 268.01 679.08 C 267.50 685.14 272.83 691.04 278.93 690.97 C 323.98 691.03 369.03 690.97 414.08 691.00 C 420.52 691.57 426.57 685.52 426.00 679.08 C 425.99 634.36 425.99 589.64 426.00 544.92 C 426.56 538.48 420.53 532.42 414.08 533.00 C 370.72 533.00 327.36 533.01 284.01 533.00 C 281.44 533.04 278.84 532.81 276.31 533.33 Z" />
<path fill="#9cc8de" opacity="0.98" d=" M 490.40 532.52 C 491.86 532.04 493.41 532.00 494.95 531.98 C 539.99 532.03 585.03 531.97 630.06 532.02 C 636.42 531.83 642.17 537.58 642.00 543.94 C 642.00 589.31 642.00 634.69 641.99 680.06 C 642.17 686.42 636.43 692.18 630.07 692.00 C 584.69 692.00 539.31 692.00 493.93 692.00 C 487.59 692.16 481.82 686.42 482.01 680.07 C 482.00 634.69 481.99 589.30 482.01 543.93 C 481.89 538.80 485.58 534.05 490.40 532.52 M 491.30 533.34 C 486.32 534.73 482.70 539.76 483.01 544.94 C 482.99 589.65 483.01 634.37 483.01 679.08 C 482.46 685.52 488.46 691.58 494.93 691.00 C 539.64 690.99 584.36 690.99 629.08 691.00 C 635.52 691.58 641.56 685.52 641.00 679.08 C 640.99 634.36 640.99 589.64 641.00 544.93 C 641.57 538.48 635.54 532.42 629.08 533.00 C 585.72 533.00 542.36 533.01 499.01 533.00 C 496.43 533.04 493.83 532.81 491.30 533.34 Z" />
</g>
</svg>
