<?xml version="1.0" encoding="UTF-8" ?>
<!DOCTYPE svg PUBLIC "-//W3C//DTD SVG 1.1//EN" "http://www.w3.org/Graphics/SVG/1.1/DTD/svg11.dtd">
<svg width="512pt" height="512pt" viewBox="0 0 512 512" version="1.1" xmlns="http://www.w3.org/2000/svg">
<g id="#303030ff">
<path fill="#303030" opacity="1.00" d=" M 70.61 0.00 L 441.38 0.00 C 446.62 1.67 452.05 2.78 457.13 4.93 C 479.69 14.24 495.84 37.50 496.00 61.99 C 496.00 191.33 496.00 320.67 496.01 450.01 C 495.79 474.48 479.69 497.77 457.12 507.07 C 452.04 509.21 446.63 510.35 441.39 512.00 L 70.61 512.00 C 63.21 509.79 55.54 508.10 48.82 504.15 C 34.15 495.96 22.77 481.91 18.33 465.65 C 15.93 458.35 15.85 450.60 15.99 443.00 C 16.01 316.00 16.00 189.00 16.00 61.99 C 16.16 37.49 32.32 14.24 54.88 4.93 C 59.95 2.78 65.37 1.66 70.61 0.00 M 76.34 32.43 C 64.84 33.48 54.52 41.70 50.34 52.37 C 47.33 60.22 48.12 68.78 48.00 77.00 C 48.01 199.67 47.97 322.34 48.02 445.00 C 47.81 454.29 50.56 464.00 57.55 470.45 C 64.00 477.43 73.71 480.19 83.00 479.98 C 197.66 480.04 312.33 479.97 426.99 480.01 C 433.83 480.02 440.97 479.48 447.07 476.07 C 456.23 471.01 462.95 461.43 463.66 450.87 C 464.38 439.59 463.83 428.28 464.00 417.00 C 463.98 300.33 464.03 183.66 463.98 66.99 C 464.20 57.71 461.43 48.01 454.46 41.55 C 448.00 34.57 438.30 31.80 429.01 32.02 C 316.01 31.97 203.00 32.02 90.00 32.00 C 85.45 31.98 80.88 31.93 76.34 32.43 Z" />
<path fill="#303030" opacity="1.00" d=" M 105.37 64.51 C 108.21 63.93 111.12 63.98 114.01 63.98 C 124.34 64.04 134.68 63.98 145.02 63.99 C 158.10 63.92 170.38 73.26 174.43 85.60 C 176.57 91.15 175.93 97.19 176.00 103.00 C 176.00 175.67 175.99 248.34 176.01 321.02 C 176.16 337.03 162.05 351.56 146.06 351.98 C 134.02 352.02 121.98 352.02 109.94 351.98 C 93.96 351.57 79.84 337.03 79.99 321.02 C 80.00 245.67 80.00 170.33 79.99 94.98 C 79.88 80.52 91.29 67.25 105.37 64.51 Z" />
<path fill="#303030" opacity="1.00" d=" M 233.37 64.51 C 235.88 63.99 238.45 63.98 241.01 63.98 C 251.68 64.03 262.34 63.98 273.01 63.99 C 286.11 63.90 298.36 73.27 302.43 85.59 C 304.46 90.82 303.97 96.51 304.00 102.00 C 304.00 130.00 304.00 158.00 304.00 186.00 C 303.97 191.48 304.46 197.18 302.42 202.40 C 298.36 214.73 286.11 224.08 273.02 224.01 C 261.33 223.98 249.64 224.03 237.95 223.98 C 221.95 223.57 207.84 209.03 207.99 193.02 C 208.00 160.34 208.01 127.66 207.99 94.98 C 207.88 80.52 219.29 67.25 233.37 64.51 Z" />
<path fill="#303030" opacity="1.00" d=" M 361.37 64.51 C 364.21 63.93 367.12 63.98 370.01 63.98 C 380.35 64.04 390.68 63.97 401.02 63.99 C 414.11 63.91 426.37 73.27 430.43 85.60 C 432.57 91.15 431.93 97.19 432.00 103.00 C 432.00 207.67 431.99 312.34 432.01 417.02 C 432.16 433.03 418.05 447.57 402.05 447.98 C 390.36 448.03 378.67 447.98 366.98 448.01 C 353.90 448.08 341.63 438.73 337.57 426.40 C 335.43 420.85 336.07 414.81 336.00 409.00 C 335.99 304.33 336.01 199.65 335.99 94.98 C 335.89 80.52 347.28 67.25 361.37 64.51 Z" />
</g>
</svg>
