<?xml version="1.0" encoding="UTF-8" ?>
<!DOCTYPE svg PUBLIC "-//W3C//DTD SVG 1.1//EN" "http://www.w3.org/Graphics/SVG/1.1/DTD/svg11.dtd">
<svg width="512pt" height="512pt" viewBox="0 0 512 512" version="1.1" xmlns="http://www.w3.org/2000/svg">
<g id="#fe2d02ff">
<path fill="#fe2d02" opacity="1.00" d=" M 74.58 0.00 L 437.42 0.00 C 450.46 1.25 463.20 6.23 473.21 14.77 C 487.06 26.30 495.85 43.90 496.01 61.99 C 495.99 191.33 496.00 320.67 496.01 450.01 C 495.84 466.16 488.82 482.03 477.38 493.38 C 466.84 504.14 452.37 510.63 437.42 512.00 L 74.57 512.00 C 60.10 510.66 46.05 504.56 35.61 494.37 C 23.59 482.95 16.15 466.65 15.99 450.02 C 16.00 320.67 16.00 191.33 15.99 61.98 C 16.15 43.90 24.94 26.30 38.79 14.77 C 48.80 6.23 61.54 1.25 74.58 0.00 M 74.41 32.62 C 65.66 34.13 57.84 39.62 53.04 47.03 C 49.21 52.92 47.85 60.05 48.01 66.99 C 47.99 192.66 48.01 318.33 48.00 444.00 C 47.94 451.00 48.88 458.29 52.67 464.34 C 57.84 472.80 66.98 478.87 76.94 479.70 C 83.28 480.20 89.65 479.94 96.00 480.00 C 207.00 479.99 318.01 480.02 429.01 479.98 C 438.30 480.25 447.96 477.36 454.46 470.47 C 461.36 463.96 464.25 454.30 463.98 445.01 C 464.00 318.67 464.03 192.33 463.97 65.99 C 464.58 53.55 457.54 41.19 446.39 35.60 C 440.77 32.56 434.29 31.92 428.00 32.01 C 314.00 31.99 200.00 32.01 86.00 32.00 C 82.13 32.02 78.24 31.99 74.41 32.62 Z" />
<path fill="#fe2d02" opacity="1.00" d=" M 105.37 64.53 C 118.19 63.32 131.13 64.35 144.00 63.97 C 157.45 63.50 170.26 72.92 174.43 85.60 C 176.52 91.16 175.97 97.18 176.00 103.00 C 176.00 173.00 176.00 243.00 176.00 313.00 C 175.97 318.81 176.52 324.84 174.43 330.40 C 170.36 342.73 158.12 352.06 145.04 352.01 C 133.33 351.97 121.63 352.05 109.93 351.98 C 93.94 351.55 79.86 337.04 79.99 321.03 C 80.01 245.68 80.01 170.32 79.99 94.97 C 79.91 80.53 91.28 67.23 105.37 64.53 Z" />
<path fill="#fe2d02" opacity="1.00" d=" M 233.37 64.53 C 241.19 63.40 249.13 64.26 257.00 64.00 C 263.94 64.19 270.93 63.54 277.84 64.39 C 289.35 66.33 299.29 75.22 302.68 86.36 C 304.49 91.72 303.95 97.45 304.00 103.00 C 304.00 133.01 303.99 163.02 304.01 193.03 C 304.07 206.40 294.33 218.85 281.64 222.69 C 276.93 224.29 271.90 224.03 267.00 224.02 C 257.31 223.94 247.62 224.08 237.93 223.98 C 221.94 223.55 207.86 209.04 207.99 193.03 C 208.01 160.34 208.00 127.65 207.99 94.97 C 207.91 80.52 219.28 67.23 233.37 64.53 Z" />
<path fill="#fe2d02" opacity="1.00" d=" M 361.38 64.53 C 369.19 63.40 377.13 64.26 385.00 64.00 C 392.20 64.24 399.47 63.43 406.62 64.53 C 417.81 66.74 427.36 75.48 430.68 86.36 C 432.59 92.04 431.91 98.12 432.00 104.00 C 432.00 208.34 431.99 312.69 432.01 417.03 C 432.14 433.04 418.06 447.55 402.07 447.98 C 390.37 448.05 378.67 447.97 366.97 448.01 C 353.88 448.06 341.64 438.73 337.57 426.40 C 335.38 420.52 336.08 414.14 336.00 408.00 C 335.99 303.66 336.01 199.31 335.99 94.97 C 335.91 80.52 347.28 67.23 361.38 64.53 Z" />
</g>
</svg>
