<?xml version="1.0" encoding="UTF-8" ?>
<!DOCTYPE svg PUBLIC "-//W3C//DTD SVG 1.1//EN" "http://www.w3.org/Graphics/SVG/1.1/DTD/svg11.dtd">
<svg width="512pt" height="512pt" viewBox="0 0 512 512" version="1.1" xmlns="http://www.w3.org/2000/svg">
<g id="#8d8d8dff">
<path fill="#8d8d8d" opacity="1.00" d=" M 216.41 13.37 C 217.97 10.76 220.74 8.74 223.92 9.07 C 244.61 9.02 265.31 9.04 286.00 9.06 C 290.79 8.56 294.38 12.96 295.22 17.26 C 298.89 38.66 302.81 60.01 306.42 81.42 C 316.51 84.86 326.71 88.28 336.12 93.38 C 341.35 91.38 346.39 88.92 351.51 86.66 C 356.70 84.19 362.22 82.27 366.87 78.81 C 376.33 71.90 385.89 65.12 395.44 58.31 C 398.36 56.17 402.47 55.85 405.77 57.28 C 410.15 59.69 413.24 63.78 416.87 67.13 C 427.88 78.46 439.27 89.43 450.34 100.70 C 454.30 104.23 454.98 110.66 452.09 115.04 C 439.61 133.07 426.80 150.88 414.35 168.94 C 420.60 180.06 425.38 191.99 428.93 204.23 C 438.62 205.94 448.38 207.32 458.06 209.06 C 468.09 210.52 478.04 212.57 488.10 213.81 L 488.72 214.26 C 491.70 214.57 494.92 214.64 497.52 216.35 C 499.72 217.64 501.00 219.91 502.50 221.89 C 503.09 226.24 502.84 230.64 502.87 235.02 C 502.89 250.70 502.85 266.38 502.89 282.06 C 503.06 285.35 502.76 288.89 500.30 291.36 C 496.14 296.46 488.90 295.55 483.13 297.13 C 475.77 298.37 468.44 299.82 461.06 300.93 C 450.38 303.05 439.59 304.58 428.91 306.72 C 425.44 318.98 420.61 330.91 414.39 342.04 C 426.71 359.25 439.19 376.35 451.49 393.58 C 453.32 395.99 454.98 398.78 454.57 401.95 C 454.72 406.33 451.25 409.50 448.43 412.37 C 435.64 424.98 423.07 437.82 410.30 450.45 C 406.80 454.29 400.52 454.93 396.19 452.20 C 378.09 439.68 360.25 426.79 342.08 414.39 C 331.06 421.23 318.65 425.37 306.50 429.69 C 303.20 449.49 299.51 469.22 296.05 488.99 C 295.39 492.12 295.37 495.60 293.28 498.23 C 291.32 500.79 288.37 502.96 285.01 502.86 C 265.33 502.94 245.65 502.88 225.97 502.89 C 222.00 503.24 218.35 500.74 216.31 497.49 C 214.44 494.69 214.71 491.20 213.91 488.06 C 210.73 468.64 207.34 449.25 204.30 429.81 C 203.73 429.57 202.59 429.09 202.01 428.85 C 191.05 425.37 180.06 421.40 170.14 415.52 C 169.04 415.42 167.80 415.01 166.86 415.84 C 149.51 427.79 132.41 440.11 115.04 452.04 C 110.43 455.17 103.75 454.11 100.17 449.87 C 86.90 436.45 73.46 423.20 60.17 409.80 C 56.20 406.26 55.01 399.81 58.28 395.43 C 70.48 377.96 83.16 360.81 95.37 343.34 C 96.03 342.33 95.19 341.16 94.77 340.25 C 90.78 333.18 87.78 325.62 84.87 318.07 C 83.85 315.42 82.96 312.72 82.09 310.02 C 81.75 308.89 81.42 307.75 81.11 306.62 C 59.40 302.57 37.60 298.91 15.89 294.87 C 12.17 293.61 8.59 290.29 9.07 286.02 C 9.00 266.37 9.09 246.72 9.03 227.07 C 9.08 224.04 8.65 220.47 11.18 218.25 C 14.08 214.71 18.86 214.76 22.95 213.90 C 26.68 213.42 30.36 212.65 34.09 212.16 C 49.74 209.40 65.43 206.86 81.10 204.23 C 81.42 203.14 81.75 202.06 82.09 200.98 C 85.32 191.04 89.17 181.26 94.06 172.03 C 94.81 170.48 96.47 168.57 95.14 166.88 C 83.18 149.54 70.95 132.39 58.97 115.07 C 56.83 112.14 56.82 108.20 57.73 104.83 C 59.69 100.71 63.54 97.95 66.56 94.65 C 78.20 83.26 89.58 71.61 101.17 60.16 C 104.70 56.20 111.12 55.04 115.51 58.26 C 133.06 70.41 150.20 83.15 167.70 95.39 C 168.69 95.99 169.98 95.47 170.90 94.95 C 181.46 89.00 193.00 85.08 204.44 81.22 C 205.61 73.82 206.75 66.40 208.06 59.02 C 209.92 46.99 212.03 35.01 213.93 22.99 C 214.71 19.77 214.46 16.21 216.41 13.37 M 228.29 139.00 C 208.13 143.26 189.59 153.72 174.31 167.37 C 171.09 171.21 166.57 174.02 164.11 178.42 C 156.56 186.59 151.16 196.50 146.18 206.37 C 142.48 214.92 139.35 223.84 138.10 233.10 C 136.60 235.81 137.88 239.10 136.41 241.87 C 136.24 250.23 136.45 258.61 136.32 266.98 C 135.99 269.43 137.63 271.56 137.33 274.02 C 139.54 291.29 146.47 307.68 156.01 322.17 C 158.59 325.73 160.94 329.51 164.09 332.61 C 165.22 335.36 167.88 336.98 169.81 339.12 C 177.82 347.70 187.52 354.47 197.56 360.48 C 198.06 360.71 199.08 361.16 199.59 361.39 C 211.18 367.68 223.94 371.86 236.98 373.71 C 246.86 375.56 257.02 374.30 267.03 374.70 C 271.84 374.08 276.63 373.33 281.43 372.57 C 282.60 371.80 284.00 371.75 285.34 371.54 C 295.17 369.12 304.50 365.12 313.48 360.50 C 314.44 359.85 315.39 359.17 316.35 358.50 C 322.26 355.55 327.42 351.32 332.52 347.18 C 336.04 344.86 338.64 341.48 341.71 338.64 C 343.51 336.69 345.92 335.16 346.95 332.63 C 350.06 329.50 352.48 325.80 354.97 322.18 C 355.61 321.19 356.27 320.22 356.94 319.25 C 366.82 303.53 373.06 285.44 374.71 267.00 C 374.56 258.28 374.81 249.55 374.60 240.85 C 373.43 238.38 374.20 235.48 372.94 233.09 C 370.84 218.32 364.60 204.45 356.94 191.77 C 353.75 187.22 350.90 182.36 346.94 178.41 C 344.43 174.01 339.91 171.17 336.68 167.32 C 328.95 160.52 320.56 154.35 311.40 149.60 C 302.39 144.79 292.75 141.05 282.73 139.00 C 277.97 137.43 272.90 137.46 268.05 136.37 C 259.70 136.34 251.36 136.34 243.02 136.37 C 238.15 137.46 233.06 137.44 228.29 139.00 Z" />
<path fill="#8d8d8d" opacity="1.00" d=" M 239.60 152.12 C 254.37 149.77 269.61 150.71 284.05 154.59 C 308.31 161.34 330.07 177.00 343.80 198.17 C 357.19 218.19 363.21 243.00 360.55 266.93 C 358.39 290.55 347.37 313.00 330.88 329.92 C 316.32 344.44 297.61 354.93 277.40 358.98 C 254.39 363.75 229.74 360.68 208.78 349.97 C 186.80 339.01 169.01 320.07 159.35 297.50 C 149.29 274.39 148.18 247.63 155.87 223.67 C 162.95 202.07 177.03 182.70 195.81 169.81 C 208.80 160.68 223.88 154.49 239.60 152.12 M 239.98 202.15 C 230.68 204.60 222.64 210.25 215.67 216.70 C 212.46 220.48 209.45 224.44 206.78 228.63 C 203.81 234.38 201.57 240.57 200.33 246.93 C 200.14 253.23 200.16 259.57 200.32 265.88 C 202.12 274.79 205.50 283.55 211.26 290.69 C 219.71 302.27 232.98 309.91 246.97 312.55 C 253.00 312.76 259.04 312.63 265.07 312.61 C 286.22 309.43 304.90 293.36 310.77 272.72 C 313.94 264.84 312.24 256.21 312.62 247.96 C 309.78 228.50 296.04 211.09 277.77 203.79 C 272.61 202.17 267.48 199.78 261.94 200.20 C 254.61 200.52 246.96 199.18 239.98 202.15 Z" />
</g>
</svg>
