<?xml version="1.0" encoding="UTF-8" ?>
<!DOCTYPE svg PUBLIC "-//W3C//DTD SVG 1.1//EN" "http://www.w3.org/Graphics/SVG/1.1/DTD/svg11.dtd">
<svg width="700pt" height="700pt" viewBox="0 0 700 700" version="1.1" xmlns="http://www.w3.org/2000/svg">
<g id="#7c9babb2">
<path fill="#7c9bab" opacity="0.70" d=" M 207.96 79.94 C 207.56 70.50 215.61 61.75 224.95 61.00 C 357.65 61.00 490.35 61.00 623.05 61.00 C 631.72 61.71 639.30 69.28 640.00 77.96 C 640.01 208.30 639.99 338.65 640.01 468.99 C 639.90 472.68 640.50 476.51 639.16 480.05 C 636.69 487.59 629.10 493.38 621.06 493.04 C 612.13 492.90 603.19 493.15 594.27 492.90 L 595.18 492.24 C 604.37 491.49 613.64 492.46 622.84 491.77 C 628.81 491.18 634.34 487.39 636.98 481.98 C 638.71 478.62 639.02 474.77 639.00 471.05 C 638.99 341.35 639.01 211.64 638.99 81.93 C 639.27 75.45 636.49 68.70 630.90 65.14 C 626.87 62.32 621.80 61.88 617.03 62.00 C 487.33 62.03 357.64 61.95 227.94 62.04 C 219.07 61.66 210.48 68.40 209.35 77.31 C 208.40 87.78 209.56 98.34 208.77 108.81 L 208.09 109.73 C 207.85 99.80 208.10 89.87 207.96 79.94 Z" />
<path fill="#7c9bab" opacity="0.70" d=" M 133.96 150.94 C 133.56 141.50 141.62 132.75 150.95 132.00 C 283.65 132.00 416.35 132.00 549.05 132.00 C 557.72 132.71 565.30 140.28 566.00 148.96 C 566.00 281.64 566.00 414.32 566.00 547.00 C 565.29 556.36 556.51 564.44 547.06 564.04 C 538.13 563.91 529.19 564.15 520.27 563.91 L 521.18 563.24 C 530.37 562.49 539.64 563.46 548.83 562.77 C 555.07 562.16 560.81 558.04 563.30 552.29 C 564.92 548.77 565.02 544.83 565.00 541.04 C 564.99 411.67 565.01 282.30 564.99 152.93 C 565.13 147.64 563.52 142.12 559.63 138.37 C 555.87 134.49 550.36 132.87 545.07 133.01 C 415.70 132.99 286.33 133.01 156.97 133.00 C 152.92 132.96 148.69 133.11 145.02 135.03 C 139.33 137.79 135.47 143.75 135.14 150.05 C 134.64 159.96 135.46 169.92 134.76 179.82 L 134.10 180.73 C 133.85 170.80 134.10 160.87 133.96 150.94 Z" />
<path fill="#7c9bab" opacity="0.70" d=" M 77.36 207.41 C 78.01 207.31 79.31 207.11 79.95 207.00 C 212.65 207.00 345.35 207.00 478.04 207.00 C 486.72 207.71 494.29 215.27 495.00 223.96 C 495.01 354.30 494.99 484.65 495.01 614.99 C 494.91 618.68 495.50 622.51 494.16 626.05 C 491.88 632.96 485.35 638.40 478.04 639.00 C 345.35 639.00 212.65 639.00 79.95 639.00 C 72.65 638.40 66.12 632.96 63.84 626.05 C 62.49 622.51 63.09 618.68 62.99 615.00 C 63.00 487.00 63.01 359.00 62.99 231.01 C 63.10 227.54 62.54 223.96 63.63 220.60 C 65.49 214.21 70.91 209.02 77.36 207.41 M 79.31 208.32 C 70.43 209.52 63.63 218.04 64.02 226.93 C 63.99 357.64 63.99 488.35 64.02 619.06 C 63.46 629.33 72.66 638.53 82.93 637.98 C 211.95 638.03 340.97 637.98 470.00 638.00 C 474.95 638.05 480.23 638.23 484.66 635.62 C 490.94 632.27 494.39 625.04 493.99 618.05 C 493.99 487.68 494.02 357.30 493.98 226.93 C 494.53 216.66 485.33 207.47 475.07 208.02 C 345.37 207.97 215.68 208.02 85.99 208.00 C 83.76 208.01 81.52 207.96 79.31 208.32 Z" />
</g>
<g id="#303030ff">
<path fill="#303030" opacity="1.00" d=" M 209.35 77.31 C 210.48 68.40 219.07 61.66 227.94 62.04 C 357.64 61.95 487.33 62.03 617.03 62.00 C 621.80 61.88 626.87 62.32 630.90 65.14 C 636.49 68.70 639.27 75.45 638.99 81.93 C 639.01 211.64 638.99 341.35 639.00 471.05 C 639.02 474.77 638.71 478.62 636.98 481.98 C 634.34 487.39 628.81 491.18 622.84 491.77 C 613.64 492.46 604.37 491.49 595.18 492.24 C 594.75 469.50 595.12 446.75 595.00 424.00 C 595.00 328.00 594.99 232.00 595.01 136.00 C 594.90 130.63 595.66 124.91 593.19 119.92 C 590.21 113.38 583.26 108.96 576.07 109.02 C 458.39 108.98 340.69 109.02 223.00 109.00 C 218.26 109.00 213.51 109.11 208.77 108.81 C 209.56 98.34 208.40 87.78 209.35 77.31 Z" />
<path fill="#303030" opacity="1.00" d=" M 145.02 135.03 C 148.69 133.11 152.92 132.96 156.97 133.00 C 286.33 133.01 415.70 132.99 545.07 133.01 C 550.36 132.87 555.87 134.49 559.63 138.37 C 563.52 142.12 565.13 147.64 564.99 152.93 C 565.01 282.30 564.99 411.67 565.00 541.04 C 565.02 544.83 564.92 548.77 563.30 552.29 C 560.81 558.04 555.07 562.16 548.83 562.77 C 539.64 563.46 530.37 562.49 521.18 563.24 C 520.75 512.50 521.12 461.74 521.00 410.99 C 520.99 340.30 521.02 269.61 520.98 198.93 C 521.22 188.82 512.18 179.79 502.08 180.02 C 385.05 179.98 268.03 180.01 151.00 180.00 C 145.59 179.97 140.17 180.14 134.76 179.82 C 135.46 169.92 134.64 159.96 135.14 150.05 C 135.47 143.75 139.33 137.79 145.02 135.03 Z" />
<path fill="#303030" opacity="1.00" d=" M 79.31 208.32 C 81.52 207.96 83.76 208.01 85.99 208.00 C 215.68 208.02 345.37 207.97 475.07 208.02 C 485.33 207.47 494.53 216.66 493.98 226.93 C 494.02 357.30 493.99 487.68 493.99 618.05 C 494.39 625.04 490.94 632.27 484.66 635.62 C 480.23 638.23 474.95 638.05 470.00 638.00 C 340.97 637.98 211.95 638.03 82.93 637.98 C 72.66 638.53 63.46 629.33 64.02 619.06 C 63.99 488.35 63.99 357.64 64.02 226.93 C 63.63 218.04 70.43 209.52 79.31 208.32 M 271.34 276.29 C 241.14 277.79 211.60 289.10 187.96 307.91 C 166.09 325.20 149.26 348.79 140.16 375.15 C 128.74 407.89 129.38 444.70 142.05 476.98 C 155.09 510.80 181.16 539.31 213.61 555.43 C 246.24 571.92 285.11 575.38 320.21 565.24 C 353.51 555.80 383.12 534.07 402.24 505.23 C 423.79 473.32 431.73 432.73 424.20 395.00 C 417.07 357.79 394.75 323.89 363.60 302.38 C 336.90 283.70 303.87 274.35 271.34 276.29 Z" />
<path fill="#303030" opacity="1.00" d=" M 265.40 304.43 C 272.81 302.72 280.51 303.05 288.04 303.56 C 297.20 305.36 306.57 306.33 315.40 309.50 C 351.93 321.12 381.86 351.38 393.00 388.07 C 395.49 395.55 396.43 403.41 398.38 411.02 C 399.25 418.57 399.20 426.26 398.51 433.82 C 396.76 441.00 395.97 448.39 393.82 455.48 C 385.32 486.64 363.41 513.87 334.74 528.75 C 322.43 535.20 309.00 539.46 295.22 541.24 C 287.28 543.11 279.04 543.08 270.96 542.40 C 262.30 540.68 253.42 539.87 245.02 537.00 C 207.46 525.83 176.58 494.76 165.69 457.12 C 163.22 449.52 162.34 441.56 160.47 433.82 C 159.74 424.08 159.34 414.04 162.08 404.56 C 165.70 381.65 176.03 359.83 191.71 342.71 C 210.61 321.61 237.31 307.89 265.40 304.43 M 308.26 385.27 C 293.12 401.73 277.99 418.19 262.78 434.58 C 256.17 428.39 250.32 421.47 243.94 415.05 C 241.52 412.56 238.39 410.71 234.96 410.05 C 226.56 408.33 217.35 413.87 215.03 422.15 C 213.33 428.19 215.38 434.83 219.73 439.27 C 228.09 448.24 236.45 457.22 244.80 466.20 C 247.82 469.45 250.63 473.08 254.56 475.31 C 259.00 477.88 264.62 478.35 269.36 476.32 C 272.79 475.07 275.10 472.10 277.55 469.55 C 296.01 450.01 314.28 430.28 332.79 410.79 C 336.88 406.63 340.08 400.95 339.19 394.94 C 337.70 385.81 328.53 377.94 319.08 379.33 C 314.80 379.59 311.12 382.26 308.26 385.27 Z" />
</g>
</svg>
