<?xml version="1.0" encoding="UTF-8" ?>
<!DOCTYPE svg PUBLIC "-//W3C//DTD SVG 1.1//EN" "http://www.w3.org/Graphics/SVG/1.1/DTD/svg11.dtd">
<svg width="512pt" height="512pt" viewBox="0 0 512 512" version="1.1" xmlns="http://www.w3.org/2000/svg">
<g id="#303030ff">
<path fill="#303030" opacity="1.00" d=" M 33.30 0.00 L 477.66 0.00 C 484.11 0.45 490.51 2.42 495.81 6.18 C 505.20 12.50 511.05 23.63 510.99 34.94 C 511.02 181.63 510.98 328.33 511.01 475.02 C 511.21 483.56 508.24 492.14 502.69 498.64 C 495.95 506.66 485.51 511.28 475.04 511.00 C 328.35 510.99 181.66 511.01 34.97 510.99 C 26.25 511.00 17.63 507.62 11.25 501.69 C 4.88 495.95 1.14 487.75 0.00 479.33 L 0.00 32.48 C 0.89 22.55 5.92 12.97 13.99 7.03 C 19.53 2.78 26.36 0.47 33.30 0.00 M 185.57 151.41 C 172.39 177.73 159.11 204.00 146.14 230.42 C 132.43 230.57 118.71 230.44 104.99 230.48 C 100.01 230.52 95.05 232.14 90.97 234.99 C 83.97 239.47 79.99 247.76 79.65 255.93 C 79.92 262.55 82.51 269.07 87.09 273.89 C 91.86 278.47 98.28 281.49 104.96 281.51 C 123.97 281.53 142.99 281.51 162.00 281.52 C 166.60 281.31 171.06 279.92 175.41 278.48 C 181.59 276.29 186.62 271.45 189.49 265.61 C 196.39 251.73 203.35 237.90 210.24 224.02 C 233.21 269.53 256.27 315.01 279.29 360.50 C 283.28 369.05 292.58 374.78 301.97 374.68 C 313.37 374.77 323.13 366.24 327.31 356.07 C 339.62 331.17 352.23 306.43 364.48 281.51 C 377.98 281.53 391.47 281.51 404.96 281.53 C 409.46 281.58 414.00 280.32 417.80 277.88 C 425.46 273.48 429.72 264.73 430.31 256.12 C 430.40 246.24 424.55 236.55 415.54 232.36 C 409.22 228.92 401.85 230.89 395.05 229.80 C 391.03 230.21 387.02 230.29 383.01 229.77 C 377.03 230.54 371.02 229.51 365.03 230.05 C 358.69 229.76 352.36 230.42 346.01 230.26 C 336.38 231.09 326.02 235.31 321.34 244.33 C 313.86 258.86 306.59 273.51 299.12 288.06 C 297.72 284.76 296.09 281.58 294.42 278.42 C 273.14 236.14 251.99 193.80 230.68 151.53 C 222.31 134.58 194.03 134.49 185.57 151.41 Z" />
</g>
</svg>
