<?xml version="1.0" encoding="UTF-8" ?>
<!DOCTYPE svg PUBLIC "-//W3C//DTD SVG 1.1//EN" "http://www.w3.org/Graphics/SVG/1.1/DTD/svg11.dtd">
<svg width="512pt" height="512pt" viewBox="0 0 512 512" version="1.1" xmlns="http://www.w3.org/2000/svg">
<g id="#303030ff">
<path fill="#303030" opacity="1.00" d=" M 29.94 13.15 C 34.16 11.82 38.62 12.03 42.98 12.03 C 153.00 12.05 263.03 12.01 373.06 12.05 C 382.75 11.97 392.20 17.72 396.51 26.40 C 398.31 30.34 400.13 34.49 399.88 38.92 C 399.88 119.95 399.87 200.97 399.88 281.99 C 378.08 281.05 356.27 287.38 337.65 298.59 C 302.60 319.54 279.33 359.81 280.99 400.88 C 200.00 400.88 119.01 400.88 38.01 400.88 C 32.87 401.02 27.94 398.95 23.55 396.46 C 15.87 391.82 10.98 382.99 11.05 374.03 C 11.02 262.35 11.04 150.68 11.04 39.00 C 10.63 27.43 18.82 16.30 29.94 13.15 M 104.09 294.97 C 103.50 295.89 103.06 296.88 102.77 297.93 C 175.93 297.95 249.08 297.96 322.23 297.93 C 321.91 296.89 321.45 295.91 320.88 295.00 C 284.70 239.77 248.71 184.41 212.50 129.19 C 176.21 184.35 140.29 239.75 104.09 294.97 Z" />
<path fill="#303030" opacity="1.00" d=" M 389.20 297.24 C 398.89 297.10 408.76 296.34 418.27 298.68 C 438.91 302.57 458.24 313.09 472.66 328.38 C 496.33 352.83 506.48 389.86 497.63 422.85 C 489.20 458.30 459.96 487.75 424.57 496.45 C 408.10 500.93 390.54 500.90 374.06 496.47 C 340.43 488.18 312.26 461.23 302.36 428.06 C 299.46 418.30 297.48 408.18 298.07 397.96 C 297.49 387.43 299.77 377.03 302.82 367.03 C 310.02 344.58 325.39 324.87 345.41 312.40 C 358.55 303.98 373.76 299.10 389.20 297.24 M 389.19 346.94 C 389.17 364.32 389.15 381.69 389.20 399.07 C 389.17 403.70 393.15 407.37 397.40 408.49 C 407.30 411.61 417.06 415.17 426.97 418.22 C 432.46 419.95 438.79 416.61 440.20 411.00 C 441.55 405.93 438.29 400.31 433.31 398.81 C 425.38 396.34 417.61 393.37 409.61 391.11 C 409.26 376.42 409.59 361.70 409.46 347.00 C 409.38 341.72 404.36 336.95 399.04 337.41 C 393.96 337.29 389.13 341.82 389.19 346.94 Z" />
</g>
</svg>
