<?xml version="1.0" encoding="UTF-8" ?>
<!DOCTYPE svg PUBLIC "-//W3C//DTD SVG 1.1//EN" "http://www.w3.org/Graphics/SVG/1.1/DTD/svg11.dtd">
<svg width="512pt" height="512pt" viewBox="0 0 512 512" version="1.1" xmlns="http://www.w3.org/2000/svg">
<g id="#303030ff">
<path fill="#303030" opacity="1.00" d=" M 33.48 0.00 L 477.42 0.00 C 495.59 0.38 511.42 16.78 510.99 34.98 C 510.99 182.32 511.04 329.66 510.97 477.00 C 510.92 495.33 494.35 511.44 476.02 510.98 C 329.35 511.03 182.68 510.98 36.01 511.01 C 28.18 511.15 20.28 508.78 14.03 504.00 C 5.93 498.09 0.91 488.49 0.00 478.56 L 0.00 32.84 C 0.75 22.54 6.09 12.58 14.57 6.62 C 20.04 2.57 26.73 0.41 33.48 0.00 M 264.26 155.03 C 216.08 228.68 167.97 302.37 119.87 376.07 C 216.62 376.10 313.37 376.10 410.12 376.07 C 362.03 302.37 313.92 228.68 265.74 155.03 C 265.37 155.03 264.63 155.03 264.26 155.03 Z" />
</g>
</svg>
