<?xml version="1.0" encoding="UTF-8" ?>
<!DOCTYPE svg PUBLIC "-//W3C//DTD SVG 1.1//EN" "http://www.w3.org/Graphics/SVG/1.1/DTD/svg11.dtd">
<svg width="512pt" height="512pt" viewBox="0 0 512 512" version="1.1" xmlns="http://www.w3.org/2000/svg">
<g id="#303030ff">
<path fill="#303030" opacity="1.00" d=" M 118.67 3.96 C 122.06 3.15 125.59 2.95 129.05 3.31 C 138.56 4.66 148.06 7.45 156.04 12.94 C 168.22 21.12 176.85 34.44 179.15 48.96 C 180.58 59.66 179.63 70.93 174.77 80.71 C 167.54 96.47 152.26 108.27 135.12 111.05 C 125.34 112.98 115.11 111.57 105.82 108.12 C 88.34 101.22 74.92 84.73 72.32 66.05 C 70.12 53.06 73.17 39.37 80.33 28.34 C 88.76 15.09 103.22 6.28 118.67 3.96 Z" />
<path fill="#303030" opacity="1.00" d=" M 379.60 3.83 C 382.04 3.31 384.53 3.09 387.03 3.14 C 401.78 4.20 416.53 10.28 426.43 21.52 C 436.95 33.11 442.17 49.44 439.88 64.96 C 437.77 82.27 426.48 98.07 410.95 105.94 C 391.55 116.23 366.07 112.90 349.99 97.94 C 337.97 87.27 331.24 71.02 332.30 54.97 C 332.78 39.20 341.05 24.11 353.58 14.65 C 361.11 8.81 370.28 5.45 379.60 3.83 Z" />
<path fill="#303030" opacity="1.00" d=" M 245.51 4.65 C 256.25 1.45 267.66 4.10 277.73 8.25 C 295.20 15.69 308.09 33.08 309.75 52.04 C 310.92 59.59 309.67 67.36 307.50 74.61 C 301.69 92.51 285.99 106.90 267.48 110.64 C 259.94 112.37 252.09 112.37 244.55 110.64 C 228.57 107.38 214.54 96.20 207.43 81.58 C 199.84 66.47 200.08 47.73 208.04 32.81 C 215.39 18.36 229.65 7.81 245.51 4.65 Z" />
<path fill="#303030" opacity="1.00" d=" M 41.08 129.03 C 50.57 125.23 60.77 122.87 71.04 123.18 C 79.58 123.23 88.13 123.07 96.68 123.26 C 106.00 139.95 116.19 156.17 124.77 173.27 C 126.04 176.13 128.48 178.67 128.48 181.93 C 128.48 220.29 128.46 258.65 128.48 297.00 C 128.11 308.04 132.95 318.72 139.99 327.01 C 147.12 335.33 156.43 341.56 166.45 345.85 C 166.43 388.22 166.45 430.60 166.44 472.97 C 166.67 484.78 172.18 495.72 179.28 504.89 C 171.86 508.16 163.46 508.67 155.55 507.22 C 143.48 504.66 132.97 495.71 128.55 484.18 C 126.94 480.11 126.39 475.76 125.52 471.50 C 125.45 489.65 110.26 506.31 92.13 507.75 C 82.44 508.90 72.37 506.33 64.67 500.26 C 56.47 494.07 51.10 484.27 50.15 474.06 C 50.05 428.42 50.16 382.78 50.09 337.14 C 37.50 333.35 25.15 326.59 17.75 315.38 C 14.05 309.62 11.75 302.86 11.66 295.98 C 11.67 253.31 11.67 210.64 11.66 167.97 C 11.77 162.07 13.06 156.14 15.86 150.91 C 21.09 140.72 30.79 133.57 41.08 129.03 Z" />
<path fill="#303030" opacity="1.00" d=" M 155.21 139.27 C 166.30 129.27 181.18 124.36 195.88 123.24 C 206.22 123.14 216.57 123.13 226.91 123.24 C 236.55 140.11 246.33 156.90 256.04 173.74 C 265.80 156.95 275.52 140.14 285.15 123.27 C 295.76 123.10 306.39 123.14 317.00 123.25 C 331.85 124.58 346.87 129.72 357.83 140.13 C 365.07 147.07 370.29 156.85 369.81 167.08 C 369.78 210.05 369.78 253.03 369.81 296.00 C 370.23 305.91 365.32 315.45 358.34 322.24 C 351.09 329.56 341.59 334.07 331.86 337.08 C 331.87 381.04 331.83 424.99 331.88 468.95 C 332.26 478.78 328.54 488.69 321.90 495.94 C 314.82 503.60 304.51 508.26 294.03 507.99 C 282.81 508.28 271.76 502.93 264.74 494.25 C 259.36 488.04 256.92 479.96 256.02 471.93 C 255.17 482.86 250.11 493.56 241.23 500.19 C 233.86 506.05 224.25 508.72 214.90 507.86 C 199.68 507.09 185.91 495.68 181.78 481.09 C 179.56 474.62 180.31 467.72 180.20 461.01 C 180.20 419.71 180.20 378.40 180.20 337.09 C 168.00 333.43 156.17 326.90 148.66 316.33 C 144.84 310.64 142.03 303.92 142.25 296.96 C 142.30 252.64 142.22 208.31 142.29 163.99 C 142.94 154.43 148.19 145.60 155.21 139.27 Z" />
<path fill="#303030" opacity="1.00" d=" M 413.97 125.80 C 414.68 124.66 415.16 122.83 416.92 123.20 C 426.95 123.18 436.98 123.11 447.01 123.24 C 462.11 124.53 477.46 129.77 488.46 140.54 C 495.84 147.60 500.57 157.68 500.33 167.99 C 500.29 210.99 500.34 254.00 500.31 297.00 C 499.88 308.84 492.98 319.76 483.54 326.62 C 477.19 331.56 469.69 334.67 462.08 337.09 C 462.19 381.07 462.09 425.05 462.13 469.02 C 462.53 481.25 456.71 493.59 446.73 500.74 C 433.79 510.55 414.34 510.46 401.49 500.53 C 392.43 493.83 386.99 482.99 386.31 471.82 C 385.36 483.07 380.09 494.11 370.75 500.73 C 359.98 508.96 344.80 510.07 332.49 504.82 C 340.78 495.28 346.07 482.76 345.64 470.01 C 345.61 428.62 345.64 387.23 345.62 345.85 C 358.88 340.14 371.23 330.94 378.19 318.06 C 381.48 311.92 383.69 305.04 383.55 298.02 C 383.55 260.35 383.57 222.67 383.54 185.00 C 383.61 183.05 383.28 181.03 383.82 179.14 C 393.31 161.05 403.86 143.54 413.97 125.80 Z" />
</g>
</svg>
