<?xml version="1.0" encoding="UTF-8" ?>
<!DOCTYPE svg PUBLIC "-//W3C//DTD SVG 1.1//EN" "http://www.w3.org/Graphics/SVG/1.1/DTD/svg11.dtd">
<svg width="512pt" height="512pt" viewBox="0 0 512 512" version="1.1" xmlns="http://www.w3.org/2000/svg">
<g id="#000000ff">
<path fill="#000000" opacity="1.00" d=" M 284.83 18.29 C 310.32 11.87 338.03 14.31 361.84 25.54 C 385.80 36.64 405.66 56.32 417.01 80.16 C 427.43 101.70 430.67 126.57 426.47 150.10 C 421.54 179.05 404.68 205.63 380.92 222.82 C 365.73 233.81 347.83 241.32 329.18 243.64 C 338.11 218.07 339.27 189.84 332.23 163.68 C 325.04 135.63 308.49 110.17 286.09 91.86 C 267.24 76.35 244.20 66.03 220.10 62.20 C 235.83 40.75 258.98 24.75 284.83 18.29 Z" />
<path fill="#000000" opacity="1.00" d=" M 182.48 84.79 C 204.48 81.77 227.45 85.05 247.50 94.70 C 274.46 107.30 296.10 130.86 306.30 158.83 C 313.84 178.71 315.27 200.70 311.24 221.52 C 305.99 247.66 291.35 271.83 270.49 288.45 C 250.21 304.87 224.16 314.15 198.03 313.77 C 171.97 314.02 146.05 304.64 125.88 288.20 C 105.15 271.45 90.42 247.32 85.43 221.10 C 80.60 196.64 83.87 170.58 94.93 148.20 C 111.23 114.32 145.13 89.58 182.48 84.79 Z" />
<path fill="#000000" opacity="1.00" d=" M 318.72 267.86 C 357.02 266.88 394.39 248.43 418.91 219.06 C 450.37 239.80 476.62 269.64 489.53 305.34 C 496.15 323.70 499.14 343.48 497.47 362.96 C 497.40 369.41 497.70 375.93 496.28 382.29 C 492.99 399.52 481.14 414.74 465.41 422.43 C 456.93 426.62 447.39 428.51 437.95 428.32 C 426.71 428.30 415.48 428.33 404.24 428.31 C 404.09 422.87 404.89 417.47 404.81 412.03 C 404.74 389.66 399.50 367.37 390.01 347.13 C 378.09 321.73 359.71 299.64 337.96 282.04 C 331.85 276.90 325.15 272.56 318.72 267.86 Z" />
<path fill="#000000" opacity="1.00" d=" M 19.42 384.61 C 30.63 344.68 58.62 310.94 92.89 288.32 C 111.48 310.28 137.04 326.31 165.02 333.13 C 182.64 337.59 201.15 338.41 219.11 335.67 C 251.88 330.75 282.61 313.56 303.92 288.18 C 326.33 303.21 346.08 322.54 360.25 345.60 C 372.00 364.72 379.88 386.40 381.93 408.80 C 383.14 419.54 382.07 430.35 382.09 441.12 C 381.72 453.80 377.21 466.32 369.10 476.11 C 358.52 489.30 341.84 497.18 324.95 497.21 C 244.96 497.23 164.98 497.22 84.99 497.22 C 75.37 497.12 65.53 497.89 56.17 495.12 C 33.42 489.22 15.83 467.94 14.28 444.49 C 13.60 424.44 13.94 404.05 19.42 384.61 Z" />
</g>
</svg>
